<?xml version="1.0" standalone="no"?>
<!DOCTYPE svg PUBLIC "-//W3C//DTD SVG 1.1//EN" "http://www.w3.org/Graphics/SVG/1.1/DTD/svg11.dtd" >
<svg xmlns="http://www.w3.org/2000/svg" xmlns:xlink="http://www.w3.org/1999/xlink" version="1.1">
<metadata>
Created by FontForge 20170731 at Fri May 12 16:55:35 2006
 By Aleksey,,,
Copyright (c) 1990, 1991, 2002 Adobe Systems Incorporated.  All Rights Reserved. (c) 1981, 2002 Heidelberger Druckmaschinen AG. All rights reserved.
</metadata>
<defs>
<font id="HelveticaRoundedLTStd-BlkO" horiz-adv-x="666" >
  <font-face 
    font-family="HelveticaRounded LT Std Blk"
    font-weight="900"
    font-style="italic"
    font-stretch="normal"
    units-per-em="1000"
    panose-1="2 15 9 4 3 5 3 2 2 4"
    ascent="733"
    descent="-267"
    x-height="523"
    cap-height="733"
    bbox="-140.6 -277 1118.75 1000"
    underline-thickness="50"
    underline-position="-200"
    slope="-12"
    unicode-range="U+0020-FB02"
  />
<missing-glyph horiz-adv-x="648" 
d="M148 0v700h500v-700h-500zM398 395l170 255h-340zM428 350l170 -255v510zM228 50h340l-170 255zM198 605v-510l170 255z" />
    <glyph glyph-name="fi" unicode="fi" 
d="M182 523l8 39q37 175 218 175q82 0 108.5 -21t18.5 -57q-8 -38 -33.5 -55t-82.5 -17q-24 0 -28 -24l-9 -40h41q64 0 51 -60q-12 -60 -76 -60h-41l-67 -313q-22 -103 -122 -103t-78 103l67 313q-71 0 -59 60q13 60 84 60zM442 89l73 345q11 51 44.5 76.5t80.5 25.5
t69.5 -25.5t11.5 -76.5l-73 -345q-11 -51 -44.5 -76.5t-80.5 -25.5t-69.5 25.5t-11.5 76.5zM572 671q8 40 42 68.5t75 28.5q40 0 62.5 -28t14.5 -69q-9 -41 -43.5 -69t-74.5 -28q-41 0 -63 28.5t-13 68.5z" />
    <glyph glyph-name="fl" unicode="fl" 
d="M442 89l115 542q11 51 44.5 76.5t80.5 25.5t69.5 -25.5t11.5 -76.5l-115 -542q-11 -51 -44.5 -76.5t-80.5 -25.5t-69.5 25.5t-11.5 76.5zM182 523l8 39q37 175 218 175q82 0 108.5 -21t18.5 -57q-8 -38 -33.5 -55t-82.5 -17q-24 0 -28 -24l-9 -40h41q64 0 51 -60
q-12 -60 -76 -60h-41l-67 -313q-22 -103 -122 -103t-78 103l67 313q-71 0 -59 60q13 60 84 60z" />
    <glyph glyph-name=".notdef" horiz-adv-x="648" 
d="M148 0v700h500v-700h-500zM398 395l170 255h-340zM428 350l170 -255v510zM228 50h340l-170 255zM198 605v-510l170 255z" />
    <glyph glyph-name=".null" horiz-adv-x="0" 
 />
    <glyph glyph-name="nonmarkingreturn" horiz-adv-x="333" 
 />
    <glyph glyph-name="space" unicode=" " horiz-adv-x="334" 
 />
    <glyph glyph-name="exclam" unicode="!" horiz-adv-x="370" 
d="M207 616q24 117 134 117q108 0 84 -117q-20 -98 -111 -309q-12 -28 -28 -40t-47 -12q-30 0 -41 12t-12 40q-2 201 21 309zM96 106q10 47 49.5 79.5t85.5 32.5q47 0 73 -33t16 -79q-11 -47 -50.5 -79.5t-85.5 -32.5q-47 0 -72.5 33t-15.5 79z" />
    <glyph glyph-name="quotedbl" unicode="&#x22;" horiz-adv-x="481" 
d="M365 440l47 223q7 31 29 50.5t52 19.5t44 -19.5t7 -50.5l-47 -223q-7 -31 -29 -50.5t-52 -19.5t-44 19.5t-7 50.5zM172 440l47 223q7 31 29 50.5t52 19.5t44 -19.5t7 -50.5l-47 -223q-7 -31 -29 -50.5t-52 -19.5t-44 19.5t-7 50.5z" />
    <glyph glyph-name="numbersign" unicode="#" horiz-adv-x="668" 
d="M242 290l42 118h-39q-24 0 -33 14t-5 34t19 34t39 14h53l54 155q18 52 67 52q19 0 30 -11t7 -27q-3 -15 -33 -100l-25 -69h90l54 155q18 52 67 52q19 0 30 -11t7 -27q-3 -15 -33 -100l-25 -69h40q24 0 33 -14t5 -34t-19 -34t-39 -14h-53l-42 -118h39q24 0 33 -14t4 -34
q-4 -20 -19 -34t-39 -14h-53l-54 -155q-18 -52 -67 -52q-19 0 -29.5 11t-7.5 27q7 28 34 100l24 69h-90l-54 -155q-18 -52 -67 -52q-19 0 -29.5 11t-7.5 27q7 28 34 100l24 69h-40q-24 0 -33 14t-5 34q12 48 59 48h53zM432 290l42 118h-89l-42 -118h89z" />
    <glyph glyph-name="dollar" unicode="$" horiz-adv-x="668" 
d="M325 121l33 155q-129 39 -178 84.5t-30 132.5q22 103 111 160.5t189 57.5l3 13q8 41 45 41q35 0 27 -41l-3 -13q29 0 66.5 -9.5t74 -27t58 -48t13.5 -67.5q-7 -32 -34.5 -53.5t-65.5 -21.5q-17 0 -32 11.5t-26 26.5t-33 31t-50 22l-29 -138q129 -34 179.5 -87.5
t30.5 -145.5q-14 -69 -63.5 -119t-111.5 -72.5t-131 -25.5l-11 -53q-8 -41 -45 -41q-35 0 -27 41l11 53q-117 0 -177.5 56t-47.5 119q7 35 35.5 58t64.5 23q22 0 38.5 -16t27 -36t33.5 -41t55 -29zM395 454l27 125q-36 -2 -63 -16.5t-33 -39.5q-6 -29 15 -47t54 -22z
M426 257l-30 -138q86 7 98 64q12 59 -68 74z" />
    <glyph glyph-name="percent" unicode="%" horiz-adv-x="1000" 
d="M639 163l10 48q18 83 70.5 132.5t141.5 49.5t120 -49.5t13 -132.5l-10 -48q-16 -75 -71 -125.5t-139 -50.5q-85 0 -118 50.5t-17 125.5zM869 190q14 50 10 84.5t-36 34.5q-33 0 -50 -30t-29 -89q-6 -28 -8.5 -47t-1 -37t11 -26.5t26.5 -8.5q32 0 48 30t29 89zM153 481
l10 48q18 83 70.5 132.5t141.5 49.5t120 -49.5t13 -132.5l-10 -48q-16 -75 -70.5 -125.5t-138.5 -50.5q-85 0 -118.5 50.5t-17.5 125.5zM384 508q14 50 9.5 84.5t-36.5 34.5q-33 0 -49 -30t-29 -89q-6 -28 -8.5 -47t-1 -37t11 -26.5t26.5 -8.5q32 0 48 30t29 89zM299 40
l447 633q30 43 47 55t39 12q18 0 30 -15t9 -27q-4 -16 -21 -40l-448 -633q-30 -43 -47 -55t-39 -12q-18 0 -30 14.5t-9 27.5q3 14 22 40z" />
    <glyph glyph-name="ampersand" unicode="&#x26;" horiz-adv-x="815" 
d="M572 345l56 -67q66 52 91 65.5t48 13.5q28 0 45.5 -21t11.5 -51q-6 -27 -26 -50.5t-77 -68.5q47 -50 38 -92q-8 -40 -44 -65.5t-71 -25.5q-19 0 -37.5 15t-48.5 59q-104 -74 -265 -74q-130 0 -176 62.5t-25 162.5q14 66 66 118.5t129 80.5q-53 61 -37 133q17 80 90 132.5
t189 52.5q111 0 169 -53.5t39 -138.5q-13 -61 -52.5 -104.5t-112.5 -83.5zM468 173l-86 111q-83 -46 -91 -81q-6 -30 10.5 -50t48.5 -20q56 0 118 40zM571 543q6 27 -10.5 41.5t-49.5 14.5q-67 0 -79 -56q-8 -38 45 -83q41 18 65.5 40.5t28.5 42.5z" />
    <glyph glyph-name="quotesingle" unicode="'" horiz-adv-x="258" 
d="M157 440l47 223q7 31 29 50.5t52 19.5t44 -19.5t7 -50.5l-47 -223q-7 -31 -29 -50.5t-52 -19.5t-44 19.5t-7 50.5z" />
    <glyph glyph-name="parenleft" unicode="(" horiz-adv-x="352" 
d="M108 273q32 147 129 327q41 77 69.5 105t65.5 28q39 0 58 -21t11 -58q-5 -24 -31.5 -80t-58 -136.5t-49.5 -164.5q-22 -105 -24 -231.5t-5 -139.5q-8 -41 -35.5 -65t-68.5 -24q-39 0 -57.5 40.5t-24.5 149.5q-7 133 21 270z" />
    <glyph glyph-name="parenright" unicode=")" horiz-adv-x="352" 
d="M166 273q22 105 24 231.5t5 139.5q8 41 35.5 65t68.5 24q39 0 57.5 -40.5t24.5 -149.5q8 -139 -21 -270q-31 -145 -128 -327q-41 -77 -70 -105t-66 -28q-39 0 -58 21t-11 58q5 24 31.5 80t58 136.5t49.5 164.5z" />
    <glyph glyph-name="asterisk" unicode="*" horiz-adv-x="556" 
d="M347 581l19 85q14 67 68 67t40 -67l-19 -85l82 31q21 8 37 8q54 0 42 -61q-8 -36 -38 -44l-113 -32l33 -57q26 -48 23 -65q-5 -22 -27 -38t-44 -16q-17 0 -27.5 8t-23.5 35l-32 68l-62 -68q-24 -27 -38 -35t-31 -8q-22 0 -37 16t-10 38q3 17 51 65l57 57l-101 32
q-25 8 -18 44q12 61 68 61q14 0 33 -8z" />
    <glyph glyph-name="plus" unicode="+" horiz-adv-x="600" 
d="M308 349l31 147q7 32 28.5 51t52.5 19t44.5 -19t6.5 -51l-31 -147h147q32 0 47.5 -17.5t8.5 -48.5t-29.5 -48.5t-54.5 -17.5h-147l-31 -147q-7 -32 -28.5 -51t-52.5 -19t-44.5 19t-6.5 51l31 147h-147q-32 0 -47.5 17.5t-8.5 48.5t29.5 48.5t54.5 17.5h147z" />
    <glyph glyph-name="comma" unicode="," horiz-adv-x="334" 
d="M78 110q10 45 47.5 76.5t84.5 31.5q50 0 77.5 -38.5t10.5 -120.5q-22 -101 -89.5 -152.5t-129.5 -51.5q-25 0 -34.5 14t-5.5 30q4 21 20 33.5t50 19.5q60 13 72 67q-15 -7 -36 -7q-42 0 -58.5 28.5t-8.5 69.5z" />
    <glyph glyph-name="hyphen" unicode="-" horiz-adv-x="389" 
d="M193 377h163q47 0 65 -25t9 -69q-20 -94 -114 -94h-163q-47 0 -65 25t-9 69q20 94 114 94z" />
    <glyph glyph-name="period" unicode="." horiz-adv-x="334" 
d="M78 106q10 47 49.5 79.5t85.5 32.5q47 0 73 -33t16 -79q-11 -47 -50.5 -79.5t-85.5 -32.5q-47 0 -72.5 33t-15.5 79z" />
    <glyph glyph-name="slash" unicode="/" horiz-adv-x="389" 
d="M75 150l295 521q23 41 39 53.5t49 12.5q28 0 46.5 -18t11.5 -51q-4 -20 -49 -98l-295 -521q-23 -41 -39 -53.5t-49 -12.5q-28 0 -46.5 18t-11.5 51q4 20 49 98z" />
    <glyph glyph-name="zero" unicode="0" horiz-adv-x="668" 
d="M498 349q23 106 12.5 156t-58.5 50t-79.5 -49.5t-54.5 -156.5q-24 -126 -12.5 -166t58.5 -40t77.5 43t56.5 163zM113 352q36 168 132.5 263.5t239.5 95.5t199.5 -95.5t20.5 -263.5q-41 -189 -139 -277t-235 -88t-198 88t-20 277z" />
    <glyph glyph-name="one" unicode="1" horiz-adv-x="519" 
d="M236 89l70 329h-108q-74 0 -59 71q8 38 30 53.5t84 25.5q76 13 134 75q35 38 56.5 53t49.5 15q81 0 66 -70l-117 -552q-11 -51 -44.5 -76.5t-80.5 -25.5t-69.5 25.5t-11.5 76.5z" />
    <glyph glyph-name="two" unicode="2" horiz-adv-x="668" 
d="M337 168h238q84 0 67 -84t-103 -84h-408q-38 0 -56 24.5t-11 58.5q10 50 53 90.5t193 131.5l109 66q42 25 62 48.5t27 54.5q8 37 -11 59t-59 22q-31 0 -53 -14.5t-34 -34.5t-24.5 -40.5t-34 -35t-52.5 -14.5q-97 0 -77 97q16 78 102 138t212 60q62 0 109 -13t74 -35
t43.5 -51t17 -61.5t-4.5 -66.5q-13 -62 -55 -109.5t-119 -90.5l-205 -114v-2z" />
    <glyph glyph-name="three" unicode="3" horiz-adv-x="668" 
d="M452 229q7 35 -6 49t-47 16q-47 4 -64.5 20t-11.5 43q14 69 97 69q28 0 52 17t31 50q8 36 -14 52t-65 16q-29 0 -50 -12t-50 -45q-36 -41 -79 -41t-60 27t-9 62q15 68 97 113.5t208 45.5q117 0 178 -53.5t42 -143.5q-22 -106 -114 -136v-2q46 -15 63.5 -55t6.5 -94
q-6 -31 -19 -60.5t-40.5 -63t-64.5 -58.5t-97 -41.5t-133 -16.5q-115 0 -177 53t-48 122q9 43 39.5 69.5t73.5 26.5q30 0 45 -12.5t19 -30.5t8.5 -35.5t20 -30t45.5 -12.5q53 0 82.5 21.5t40.5 70.5z" />
    <glyph glyph-name="four" unicode="4" horiz-adv-x="668" 
d="M374 95l10 48h-236q-48 0 -64.5 29.5t-6.5 77.5q11 52 86 124l263 252q56 53 87.5 72t69.5 19q56 0 81 -28.5t14 -77.5l-66 -312q47 0 67.5 -17.5t11.5 -60.5t-37 -60.5t-76 -17.5l-10 -48q-11 -51 -41.5 -79.5t-78.5 -28.5t-66.5 28.5t-7.5 79.5zM418 299l45 215h-2
l-209 -215h166z" />
    <glyph glyph-name="five" unicode="5" horiz-adv-x="668" 
d="M366 536l-42 -107q44 21 74 28t76 7t84.5 -12t67.5 -39t38.5 -69.5t-1.5 -102.5q-18 -87 -74.5 -145.5t-131 -83.5t-166.5 -25q-37 0 -74 7.5t-71.5 23t-52 45t-9.5 67.5q7 36 39.5 58.5t73.5 22.5q25 0 42 -10.5t25.5 -23.5t26 -23.5t43.5 -10.5q50 0 82 28.5t40 65.5
q9 42 -13.5 71.5t-64.5 29.5q-27 0 -74 -19.5t-84 -19.5q-35 0 -60.5 19t-15.5 66q6 29 33.5 102.5t50.5 125.5q21 50 48.5 68t81.5 18h270q44 0 62 -21.5t10 -59.5t-35 -59.5t-71 -21.5h-228z" />
    <glyph glyph-name="six" unicode="6" horiz-adv-x="668" 
d="M479 227q9 41 -9.5 65.5t-60.5 24.5q-41 0 -71 -27t-38 -63q-8 -37 10.5 -63.5t60.5 -26.5q41 0 70.5 26.5t37.5 63.5zM109 341q37 171 136.5 270.5t266.5 99.5q29 0 63 -6t69.5 -19.5t55.5 -41t12 -63.5q-7 -38 -35.5 -61t-65.5 -23q-34 0 -70.5 35t-65.5 35
q-112 0 -148 -170q70 52 157 52q109 0 163 -59t32 -164q-23 -109 -109.5 -174t-223.5 -65q-147 0 -210 92t-27 262z" />
    <glyph glyph-name="seven" unicode="7" horiz-adv-x="593" 
d="M481 536h-278q-43 0 -61.5 21.5t-10.5 59.5q18 81 106 81h390q49 0 69.5 -20.5t11.5 -67.5q-6 -29 -31.5 -59.5t-89.5 -85.5q-45 -39 -112.5 -139.5t-100.5 -197.5q-29 -86 -65.5 -113.5t-83.5 -27.5q-34 0 -55.5 27t-13.5 65q19 91 135 247t190 210z" />
    <glyph glyph-name="eight" unicode="8" horiz-adv-x="668" 
d="M167 519q6 30 25.5 60.5t55 61.5t97 50.5t139.5 19.5q64 0 111.5 -13t72 -34t40.5 -47t15.5 -51t-2.5 -47q-11 -52 -44.5 -92t-80.5 -59q53 -27 72 -61.5t7 -93.5q-24 -110 -115.5 -168t-229.5 -58q-137 0 -203.5 58t-43.5 168q12 59 46.5 93.5t98.5 61.5
q-39 19 -55.5 59t-5.5 92zM290 218q-9 -43 10.5 -65t59.5 -22q92 0 110 87q8 39 -12 64t-60 25q-38 0 -69 -25t-39 -64zM356 494q-7 -36 10 -54.5t56 -18.5q85 0 100 73q16 73 -68 73q-82 0 -98 -73z" />
    <glyph glyph-name="nine" unicode="9" horiz-adv-x="668" 
d="M516 471q8 37 -10.5 63.5t-60.5 26.5q-41 0 -70.5 -26.5t-37.5 -63.5q-8 -41 10.5 -65.5t59.5 -24.5t71.5 27t37.5 63zM332 249q-109 0 -163 59t-32 164q23 105 111.5 172t221.5 67q152 0 212.5 -92t24.5 -262q-37 -171 -136.5 -270.5t-266.5 -99.5q-29 0 -63 6
t-69.5 19.5t-55.5 41t-12 63.5q8 38 36.5 61t65.5 23q34 0 70.5 -35t65.5 -35q63 0 96.5 46t50.5 124q-70 -52 -157 -52z" />
    <glyph glyph-name="colon" unicode=":" horiz-adv-x="334" 
d="M78 106q10 47 49.5 79.5t85.5 32.5q47 0 73 -33t16 -79q-11 -47 -50.5 -79.5t-85.5 -32.5q-47 0 -72.5 33t-15.5 79zM145 424q10 46 49.5 79t86.5 33q46 0 72 -32.5t16 -79.5q-10 -46 -49.5 -79t-86.5 -33q-46 0 -72 32.5t-16 79.5z" />
    <glyph glyph-name="semicolon" unicode=";" horiz-adv-x="334" 
d="M78 110q10 45 47.5 76.5t84.5 31.5q50 0 77.5 -38.5t10.5 -120.5q-22 -101 -89.5 -152.5t-129.5 -51.5q-25 0 -34.5 14t-5.5 30q4 21 20 33.5t50 19.5q60 13 72 67q-15 -7 -36 -7q-42 0 -58.5 28.5t-8.5 69.5zM145 424q10 46 49.5 79t86.5 33q46 0 72 -32.5t16 -79.5
q-10 -46 -49.5 -79t-86.5 -33q-46 0 -72 32.5t-16 79.5z" />
    <glyph glyph-name="less" unicode="&#x3c;" horiz-adv-x="600" 
d="M132 340l447 187q33 14 58 14q24 0 36 -16t6 -44q-9 -43 -60 -63l-351 -135l293 -135q18 -8 27 -19t9 -21.5t-2 -22.5q-6 -28 -24.5 -44t-43.5 -16t-52 14l-367 187q-33 17 -25 57q8 39 49 57z" />
    <glyph glyph-name="equal" unicode="=" horiz-adv-x="600" 
d="M186 467h426q32 0 47.5 -17.5t8.5 -48.5t-29.5 -48.5t-54.5 -17.5h-426q-32 0 -47.5 17.5t-8.5 48.5t29.5 48.5t54.5 17.5zM136 231h426q32 0 47.5 -17.5t8.5 -48.5t-29.5 -48.5t-54.5 -17.5h-426q-32 0 -47.5 17.5t-8.5 48.5t29.5 48.5t54.5 17.5z" />
    <glyph glyph-name="greater" unicode="&#x3e;" horiz-adv-x="600" 
d="M452 283l-293 135q-43 20 -34 63q6 28 24.5 44t43.5 16q26 0 52 -14l367 -187q33 -17 25 -57q-8 -39 -49 -57l-447 -187q-31 -14 -58 -14q-24 0 -36 16t-6 44q9 43 60 63z" />
    <glyph glyph-name="question" unicode="?" horiz-adv-x="593" 
d="M457 532q6 29 -10 42t-47 13q-56 0 -101 -51q-30 -34 -49 -44t-49 -10q-41 0 -62 21t-12 60q13 60 97 117t209 57q134 0 194.5 -58.5t42.5 -143.5q-10 -47 -36.5 -82.5t-59 -55.5t-65 -35t-61.5 -31t-41 -34q-19 -29 -42 -39t-60 -10q-41 0 -55.5 21.5t-6.5 57.5
q15 73 118 120q54 25 72 40.5t24 44.5zM177 106q10 47 49.5 79.5t85.5 32.5q47 0 73 -33t16 -79q-11 -47 -50.5 -79.5t-85.5 -32.5q-47 0 -72.5 33t-15.5 79z" />
    <glyph glyph-name="at" unicode="@" horiz-adv-x="800" 
d="M565 366q8 37 -7 59t-52 22q-43 0 -78 -32t-44 -76q-7 -34 6.5 -56t49.5 -22q47 0 81 30t44 75zM624 498l8 18q15 36 54 36q19 0 28.5 -11.5t5.5 -31.5q-2 -12 -45 -122.5t-45 -116.5q-4 -21 15 -21q32 0 67.5 40.5t51.5 115.5q24 114 -35 178t-177 64q-116 0 -214 -84
t-124 -204q-27 -130 36.5 -208t188.5 -78q66 0 115.5 16.5t76 32.5t37.5 16q16 0 25 -10.5t6 -24.5q-5 -22 -45.5 -50t-106 -49t-128.5 -21q-164 0 -255.5 106.5t-57.5 269.5q34 161 170 269.5t298 108.5q148 0 232.5 -84.5t55.5 -219.5q-14 -64 -45.5 -116t-68.5 -82.5
t-78 -51.5t-71 -28.5t-51 -7.5q-56 0 -49 49h-2q-35 -26 -62.5 -37.5t-65.5 -11.5q-60 0 -90 46.5t-14 123.5q23 105 95.5 174.5t152.5 69.5q44 0 69.5 -15t41.5 -48z" />
    <glyph glyph-name="A" unicode="A" horiz-adv-x="684" 
d="M484 97h-242l-28 -53q-14 -28 -44 -42.5t-61 -14.5q-40 0 -66.5 27t-18.5 66q7 32 64 134l244 426q28 47 58 70t72 23h72q42 0 62.5 -23t27.5 -70l62 -426q15 -102 8 -134q-8 -39 -46 -66t-79 -27q-31 0 -54.5 14.5t-26.5 42.5zM472 241l-22 263h-2l-134 -263h158z" />
    <glyph glyph-name="B" unicode="B" horiz-adv-x="778" 
d="M394 427h113q32 0 55 19.5t29 45.5q13 66 -56 66h-113zM108 137l95 446q15 71 54 104t106 33h239q135 0 184.5 -51t31.5 -131q-26 -122 -133 -149l-1 -2q62 -12 86.5 -59t9.5 -116q-20 -94 -101.5 -153t-213.5 -59h-255q-67 0 -92 32.5t-10 104.5zM337 162h115
q93 0 108 70q7 34 -14 51.5t-64 17.5h-115z" />
    <glyph glyph-name="C" unicode="C" horiz-adv-x="741" 
d="M121 360q38 179 168 278t284 99q125 0 198.5 -61.5t56.5 -141.5q-10 -43 -46.5 -71t-84.5 -28q-32 0 -46 11t-29 49q-14 35 -37 48.5t-63 13.5q-56 0 -103.5 -52.5t-67.5 -144.5q-19 -91 5.5 -144t94.5 -53q32 0 56.5 14.5t68.5 61.5q43 48 94 48q46 0 70.5 -28.5
t15.5 -72.5q-13 -60 -72.5 -108t-132 -71.5t-139.5 -23.5q-74 0 -134.5 22t-104.5 68.5t-57.5 117.5t5.5 169z" />
    <glyph glyph-name="D" unicode="D" horiz-adv-x="778" 
d="M98 137l95 446q15 71 54 104t106 33h195q87 0 148.5 -28t91 -77t38.5 -114.5t-9 -140.5q-34 -160 -142.5 -260t-279.5 -100h-195q-67 0 -92 32.5t-10 104.5zM331 180h51q95 0 140 44t65 136q19 92 -7 136t-121 44h-51z" />
    <glyph glyph-name="E" unicode="E" horiz-adv-x="722" 
d="M111 137l95 446q15 71 54 104t106 33h366q50 0 70.5 -22.5t11.5 -61.5q-8 -39 -38 -61.5t-80 -22.5h-267l-21 -101h214q50 0 70.5 -22.5t11.5 -61.5q-18 -84 -118 -84h-214l-24 -115h278q50 0 70 -22.5t12 -61.5q-18 -84 -118 -84h-377q-67 0 -92 32.5t-10 104.5z" />
    <glyph glyph-name="F" unicode="F" horiz-adv-x="667" 
d="M403 427h208q39 0 55.5 -25.5t8.5 -61.5q-7 -36 -34.5 -61.5t-66.5 -25.5h-208l-30 -142q-13 -58 -51 -91t-91 -33t-77 33t-11 91l100 472q15 71 54 104t106 33h331q110 0 90 -90t-128 -90h-232z" />
    <glyph glyph-name="G" unicode="G" horiz-adv-x="833" 
d="M610 243h-56q-27 0 -43.5 20t-9.5 51q8 37 32.5 58t61.5 21h148q50 0 72 -31t12 -78l-43 -206q-21 -95 -101 -95q-34 0 -50.5 20.5t-10.5 50.5l5 20h-2q-35 -42 -99 -66.5t-127 -24.5q-51 0 -96 11.5t-86.5 38t-65.5 69.5t-33 107t11 151q20 97 69.5 172.5t113 118.5
t129.5 64.5t130 21.5q56 0 100.5 -9t72 -23.5t48 -32.5t27.5 -37.5t11 -37.5t-1 -32q-8 -38 -44.5 -69.5t-86.5 -31.5q-20 0 -34.5 9.5t-24.5 23t-21 27.5t-30.5 23.5t-47.5 9.5q-62 0 -111.5 -49.5t-70.5 -151.5q-24 -92 0 -145.5t106 -53.5q102 0 146 86z" />
    <glyph glyph-name="H" unicode="H" horiz-adv-x="833" 
d="M630 473l28 136q13 58 51 91t91 33t77 -33t11 -91l-105 -498q-13 -58 -51 -91t-91 -33t-77 33t-11 91l35 168h-225l-35 -168q-13 -58 -51 -91t-91 -33t-77 33t-11 91l105 498q13 58 51 91t91 33t77 -33t11 -91l-28 -136h225z" />
    <glyph glyph-name="I" unicode="I" horiz-adv-x="388" 
d="M103 111l105 498q13 58 51 91t91 33t77 -33t11 -91l-105 -498q-13 -58 -51 -91t-91 -33t-77 33t-11 91z" />
    <glyph glyph-name="J" unicode="J" horiz-adv-x="667" 
d="M405 264l73 345q13 58 51 91t91 33t77 -33t11 -91l-82 -390q-17 -78 -71 -133.5t-120.5 -79t-139.5 -23.5q-119 0 -180.5 60t-42.5 151q26 121 136 121q40 0 63 -24t13 -68q-14 -66 41 -66q29 0 48 23.5t32 83.5z" />
    <glyph glyph-name="K" unicode="K" horiz-adv-x="759" 
d="M411 467l223 198q45 39 69 53.5t51 14.5q44 0 66 -31t15 -66q-5 -23 -18.5 -40.5t-42.5 -42.5l-134 -119l117 -273q15 -36 9 -68q-10 -44 -52 -75t-88 -31q-63 0 -84 51l-105 243l-80 -71l-21 -99q-13 -58 -51 -91t-91 -33t-77 33t-11 91l105 498q13 58 51 91t91 33
t77 -33t11 -91z" />
    <glyph glyph-name="L" unicode="L" horiz-adv-x="667" 
d="M352 186h241q45 0 66.5 -24.5t12.5 -68.5q-10 -44 -42 -68.5t-77 -24.5h-340q-67 0 -92 32.5t-10 104.5l100 472q13 58 51 91t91 33t77 -33t11 -91z" />
    <glyph glyph-name="M" unicode="M" horiz-adv-x="944" 
d="M533 280l170 357q26 53 57 74.5t86 21.5h65q58 0 81.5 -34t11.5 -91l-110 -518q-11 -51 -44 -77t-81 -26t-70 26.5t-11 76.5l75 350h-2l-187 -389q-18 -37 -40.5 -50.5t-64.5 -13.5t-59 14t-18 50l-21 389h-2l-75 -350q-11 -51 -44 -77t-81 -26t-70 26.5t-11 76.5
l110 518q12 57 50.5 91t96.5 34h65q54 0 76 -21t25 -75l20 -357h2z" />
    <glyph glyph-name="N" unicode="N" horiz-adv-x="833" 
d="M603 321l64 301q11 51 48 83t89 32t75 -32t12 -83l-112 -529q-12 -56 -53.5 -83t-100.5 -27q-47 0 -72.5 18.5t-45.5 71.5l-125 314h-2l-60 -284q-12 -58 -48 -89t-90 -31t-76 31t-10 89l109 511q12 59 52.5 91t105.5 32q83 0 110 -70l128 -346h2z" />
    <glyph glyph-name="O" unicode="O" horiz-adv-x="832" 
d="M635 360q19 91 -6 144t-95 53t-117 -53t-66 -144t5.5 -144t94.5 -53t117.5 53t66.5 144zM121 360q38 179 168 278t284 99q73 0 133.5 -23.5t104 -70.5t58.5 -118t-4 -165q-27 -125 -99.5 -212.5t-162.5 -126t-191 -38.5q-74 0 -134.5 22t-104.5 68.5t-57.5 117.5t5.5 169
z" />
    <glyph glyph-name="P" unicode="P" horiz-adv-x="778" 
d="M105 107l101 476q15 71 54 104t106 33h208q146 0 218 -56t43 -193q-52 -248 -367 -248h-115l-24 -116q-13 -58 -48.5 -89t-89.5 -31t-76.5 31t-9.5 89zM390 397h127q31 0 58.5 19t35.5 54q7 36 -12 56t-61 20h-116z" />
    <glyph glyph-name="Q" unicode="Q" horiz-adv-x="832" 
d="M483 167l-15 21q-28 38 -22 65q6 30 32.5 51.5t56.5 21.5q35 0 57 -30l15 -20q16 33 28 84q19 91 -6 144t-95 53t-117 -53t-66 -144t5.5 -144t94.5 -53q19 0 32 4zM625 -23l-31 42q-87 -36 -182 -36q-74 0 -134.5 22t-104.5 68.5t-57.5 117.5t5.5 169q38 179 168 278
t284 99q73 0 133.5 -23.5t104 -70.5t58.5 -118t-4 -165q-33 -154 -134 -250l21 -27q34 -45 29 -71q-6 -26 -33.5 -51t-63.5 -25q-28 0 -59 41z" />
    <glyph glyph-name="R" unicode="R" horiz-adv-x="778" 
d="M92 107l101 476q15 72 55.5 104.5t114.5 32.5h255q125 0 177.5 -58t34.5 -146q-15 -69 -63.5 -114t-119.5 -58v-2q58 -4 86 -28t24 -78l-5 -60q-4 -65 -11 -101q-9 -39 -45.5 -63.5t-76.5 -24.5q-53 0 -82 24t-24 75l9 95q4 41 -18.5 58t-66.5 17h-90l-31 -149
q-13 -58 -48.5 -89t-89.5 -31t-76.5 31t-9.5 89zM379 406h115q50 0 75.5 16.5t33.5 53.5t-10.5 53.5t-68.5 16.5h-115z" />
    <glyph glyph-name="S" unicode="S" horiz-adv-x="722" 
d="M490 205q4 21 -8.5 32t-43.5 21l-144 44q-166 51 -135 202q21 99 105 166t225 67q55 0 103 -7.5t92 -23.5t65 -47.5t12 -74.5q-9 -41 -42 -66t-77 -25q-25 0 -43.5 13.5t-29.5 30.5t-37 30.5t-64 13.5q-32 0 -56 -12.5t-29 -35.5t11 -35.5t54 -23.5l112 -32
q93 -27 135 -76.5t23 -137.5q-17 -82 -73 -139t-127 -81.5t-151 -24.5q-86 0 -147 17.5t-89 45t-38.5 55.5t-4.5 55q9 42 42 68t75 26q27 0 47.5 -16.5t32.5 -36t38.5 -36t64.5 -16.5q88 0 102 60z" />
    <glyph glyph-name="T" unicode="T" horiz-adv-x="722" 
d="M360 534h-139q-47 0 -65.5 25t-9.5 68q20 93 122 93h492q102 0 82 -93q-19 -93 -113 -93h-139l-90 -423q-13 -58 -51 -91t-91 -33t-77 33t-11 91z" />
    <glyph glyph-name="U" unicode="U" horiz-adv-x="832" 
d="M592 281l69 328q13 58 51 91t91 33t77 -33t11 -91l-70 -330q-33 -155 -141 -225.5t-268 -70.5q-77 0 -134.5 15.5t-98.5 50.5t-53 91.5t3 138.5l70 330q13 58 51 91t91 33t77 -33t11 -91l-69 -328q-26 -124 89 -124q59 0 95 33t48 91z" />
    <glyph glyph-name="V" unicode="V" horiz-adv-x="722" 
d="M413 240l196 414q19 41 54 60t71 19q44 0 70.5 -27.5t17.5 -69.5q-6 -29 -31 -75l-269 -481q-32 -57 -66.5 -75t-97.5 -18t-90 18t-34 75l-65 481q-5 44 1 75q9 42 47.5 69.5t82.5 27.5q36 0 63 -19t28 -60l20 -414h2z" />
    <glyph glyph-name="W" unicode="W" horiz-adv-x="962" 
d="M715 249l146 392q34 92 129 92q46 0 69 -28t14 -72q-7 -29 -54 -133l-188 -410q-48 -103 -142 -103h-35q-49 0 -70 26t-19 80l8 334h-2l-134 -334q-42 -106 -135 -106h-35q-95 0 -98 103l-14 410q-4 100 4 133q9 44 44 72t81 28q94 0 89 -92l-20 -392h2l142 373
q23 61 53 86t87 25t76 -24.5t16 -86.5l-16 -373h2z" />
    <glyph glyph-name="X" unicode="X" horiz-adv-x="630" 
d="M261 372l-87 194q-14 32 -8 62q10 46 48 75.5t81 29.5q28 0 50.5 -13t31.5 -38l51 -151l115 151q38 51 104 51q43 0 68 -29.5t15 -75.5q-6 -30 -34 -62l-169 -194l95 -214q18 -41 12 -69q-11 -51 -52 -76.5t-81 -25.5q-65 0 -87 63l-55 156l-121 -156q-50 -63 -115 -63
q-40 0 -70 25.5t-19 76.5q5 27 42 69z" />
    <glyph glyph-name="Y" unicode="Y" 
d="M433 470l134 193q49 70 122 70q46 0 71 -32.5t16 -76.5q-6 -28 -46 -79l-227 -287l-31 -147q-13 -58 -51 -91t-91 -33t-77 33t-11 91l31 147l-105 287q-18 50 -12 79q9 44 48 76.5t85 32.5q73 0 92 -70z" />
    <glyph glyph-name="Z" unicode="Z" horiz-adv-x="722" 
d="M373 180h260q106 0 86 -90q-18 -90 -124 -90h-460q-56 0 -78.5 28t-13.5 73q7 29 25.5 53.5t64.5 65.5l356 320h-224q-55 0 -77.5 24t-13.5 66t41.5 66t87.5 24h434q52 0 72.5 -28t11.5 -73q-10 -45 -67 -97z" />
    <glyph glyph-name="bracketleft" unicode="[" horiz-adv-x="389" 
d="M46 -79l150 704q20 95 137 95h106q43 0 63.5 -18t13.5 -54q-7 -35 -31.5 -53.5t-57.5 -18.5h-66l-128 -606h66q33 0 49 -18.5t8 -53.5q-15 -72 -107 -72h-106q-54 0 -81 21.5t-16 73.5z" />
    <glyph glyph-name="backslash" unicode="\" horiz-adv-x="389" 
d="M237 49l-73 521q-10 83 -7 98q7 33 33.5 51t54.5 18q33 0 43.5 -12t16.5 -54l73 -521q10 -83 7 -98q-7 -33 -33.5 -51t-54.5 -18q-33 0 -43.5 12t-16.5 54z" />
    <glyph glyph-name="bracketright" unicode="]" horiz-adv-x="389" 
d="M144 -30l128 606h-66q-33 0 -48.5 18.5t-8.5 53.5q15 72 107 72h106q54 0 81 -21.5t16 -73.5l-150 -704q-20 -95 -137 -95h-106q-43 0 -63.5 18t-13.5 54q17 72 89 72h66z" />
    <glyph glyph-name="asciicircum" unicode="^" horiz-adv-x="600" 
d="M487 348l-69 207l-157 -207q-30 -40 -78 -40q-28 0 -37 11t-6 25q4 18 22 44l214 280q32 43 75 43q42 0 57 -43l94 -280q8 -24 4 -44q-7 -36 -59 -36q-25 0 -38.5 8t-21.5 32z" />
    <glyph glyph-name="underscore" unicode="_" horiz-adv-x="500" 
d="M473 -125h-500q-13 0 -19.5 6.5t-3.5 18.5q5 25 34 25h500q12 0 19 -6.5t5 -18.5q-6 -25 -35 -25z" />
    <glyph glyph-name="grave" unicode="`" horiz-adv-x="278" 
d="M220 597l-68 71q-23 23 -17 53q6 25 30 43t46 18q16 0 27.5 -6t31.5 -27l68 -71q23 -23 17 -53q-6 -25 -30 -43t-46 -18q-16 0 -27.5 6t-31.5 27z" />
    <glyph glyph-name="a" unicode="a" 
d="M452 176l13 59q-21 -18 -76.5 -27t-65.5 -13q-30 -12 -37 -43q-4 -23 11 -37t41 -14q42 0 75 22.5t39 52.5zM696 382l-48 -229q-4 -20 -8 -51.5t-6 -41.5q-8 -36 -40 -54.5t-72 -18.5q-50 0 -69 22t-17 61q-73 -83 -202 -83q-90 0 -134 39.5t-26 122.5q15 71 84 113.5
t216 51.5q60 4 86.5 14.5t32.5 36.5q5 25 -13.5 38t-59.5 13q-47 0 -104.5 -35.5t-90.5 -35.5q-31 0 -44.5 16.5t-6.5 47.5q12 57 90.5 92t187.5 35q47 0 89 -6.5t83.5 -22t61.5 -47.5t10 -78z" />
    <glyph glyph-name="b" unicode="b" 
d="M69 87l116 543q22 103 122 103t78 -103l-37 -174h2q67 80 162 80q49 0 85.5 -19t55 -48t28 -66.5t9 -72.5t-7.5 -67q-27 -127 -106 -201.5t-187 -74.5q-51 0 -93 24t-44 70h-2q-9 -41 -38 -67.5t-72 -26.5q-92 0 -71 100zM303 261q-25 -124 57 -124q48 0 76 35t38 84
q11 51 -4 84.5t-64 33.5q-35 0 -63 -30t-40 -83z" />
    <glyph glyph-name="c" unicode="c" horiz-adv-x="611" 
d="M96 262q29 136 125 205t226 69q104 0 162.5 -42.5t46.5 -98.5q-7 -34 -32.5 -55t-57.5 -21q-17 0 -33 11.5t-26.5 25t-30 25t-44.5 11.5q-57 0 -88 -37t-41 -89q-15 -51 0 -93t65 -42q36 0 90.5 36.5t81.5 36.5q35 0 51 -23.5t10 -52.5q-4 -18 -21.5 -40t-48 -45.5
t-84 -39.5t-117.5 -16q-130 0 -196.5 69.5t-37.5 205.5z" />
    <glyph glyph-name="d" unicode="d" 
d="M512 456l37 174q22 103 122 103t78 -103l-116 -543q-21 -100 -113 -100q-43 0 -61 26.5t-9 67.5h-2q-21 -46 -73.5 -70t-103.5 -24q-108 0 -155 74.5t-20 201.5q9 41 30.5 85.5t55.5 88t86.5 71.5t113.5 28q95 0 128 -80h2zM473 261q12 53 -4 83t-51 30q-92 0 -118 -118
q-23 -119 64 -119q84 0 109 124z" />
    <glyph glyph-name="e" unicode="e" 
d="M624 103q-10 -48 -83 -82t-211 -34q-130 0 -196.5 69.5t-37.5 205.5t125 205t226 69q48 0 87.5 -9t65.5 -24t47 -35t31 -42t17 -45t5.5 -43.5t-3.5 -37.5q-10 -46 -36.5 -65t-76.5 -19h-292q-7 -51 15.5 -80t71.5 -29q39 0 102 32t93 32q26 0 40.5 -21t9.5 -47zM314 318
h193q11 51 -11.5 74.5t-64.5 23.5q-39 0 -72 -23.5t-45 -74.5z" />
    <glyph glyph-name="f" unicode="f" horiz-adv-x="426" 
d="M213 523l8 39q37 175 218 175q82 0 108.5 -21t18.5 -57q-8 -38 -34 -55t-82 -17q-24 0 -28 -24l-9 -40h52q64 0 51 -60q-12 -60 -76 -60h-52l-67 -313q-22 -103 -122 -103t-78 103l67 313h-38q-64 0 -52 60q13 60 77 60h38z" />
    <glyph glyph-name="g" unicode="g" 
d="M423 37l15 69h-2q-23 -36 -66.5 -54t-93.5 -18q-38 0 -72 13t-63.5 42.5t-38.5 77t3 117.5q23 107 100 179.5t182 72.5q52 0 94 -24t44 -70h2q9 41 38 67.5t72 26.5q92 0 71 -100l-90 -421q-46 -222 -340 -222q-69 0 -118 12.5t-70.5 32.5t-29 38.5t-3.5 36.5
q6 32 31.5 54t59.5 22q19 0 40 -16t46 -32t55 -16q61 0 91 27t43 85zM483 282q10 48 -4 79t-59 31q-86 0 -109 -110t63 -110q45 0 72 31t37 79z" />
    <glyph glyph-name="h" unicode="h" 
d="M428 89l42 197q19 88 -58 88q-37 0 -62 -27t-35 -75l-39 -183q-11 -51 -44.5 -76.5t-80.5 -25.5t-69.5 25.5t-11.5 76.5l115 542q11 51 44.5 76.5t80.5 25.5t69.5 -25.5t11.5 -76.5l-37 -176h2q72 81 172 81q102 0 139.5 -55.5t18.5 -146.5l-52 -245q-11 -51 -44.5 -76.5
t-80.5 -25.5t-69.5 25.5t-11.5 76.5z" />
    <glyph glyph-name="i" unicode="i" horiz-adv-x="314" 
d="M73 89l73 345q11 51 44.5 76.5t80.5 25.5t69.5 -25.5t11.5 -76.5l-73 -345q-11 -51 -44.5 -76.5t-80.5 -25.5t-69.5 25.5t-11.5 76.5zM203 671q8 40 42 68.5t75 28.5q40 0 62.5 -28t14.5 -69q-9 -41 -43.5 -69t-74.5 -28q-41 0 -63 28.5t-13 68.5z" />
    <glyph glyph-name="j" unicode="j" horiz-adv-x="333" 
d="M64 -40l101 474q11 51 44.5 76.5t80.5 25.5t69.5 -25.5t11.5 -76.5l-100 -471q-16 -74 -71 -117t-145 -43q-53 0 -79 18.5t-16 65.5q6 27 23 39.5t51 17.5q29 5 30 16zM222 671q8 40 42 68.5t75 28.5q40 0 62.5 -28t14.5 -69q-9 -41 -43.5 -69t-74.5 -28q-41 0 -63 28.5
t-13 68.5z" />
    <glyph glyph-name="k" unicode="k" horiz-adv-x="593" 
d="M328 351l146 142q44 43 88 43q36 0 58.5 -24t14.5 -62q-8 -37 -54 -72l-80 -64l69 -143q28 -55 20 -92q-9 -41 -44.5 -66.5t-78.5 -25.5q-39 0 -57.5 18.5t-39.5 77.5l-36 96l-54 -43l-10 -46q-22 -103 -122 -103t-78 103l115 540q22 103 122 103t78 -103l-59 -279h2z
" />
    <glyph glyph-name="l" unicode="l" horiz-adv-x="314" 
d="M73 89l115 542q11 51 44.5 76.5t80.5 25.5t69.5 -25.5t11.5 -76.5l-115 -542q-11 -51 -44.5 -76.5t-80.5 -25.5t-69.5 25.5t-11.5 76.5z" />
    <glyph glyph-name="m" unicode="m" horiz-adv-x="1000" 
d="M759 89l42 197q10 48 -2.5 68t-47.5 20q-28 0 -53.5 -26t-34.5 -68l-41 -191q-11 -51 -44.5 -76.5t-80.5 -25.5t-69.5 25.5t-11.5 76.5l42 197q10 48 -2.5 68t-47.5 20q-28 0 -53.5 -26t-34.5 -68l-41 -191q-11 -51 -44.5 -76.5t-80.5 -25.5t-69.5 25.5t-11.5 76.5
l74 349q21 98 120 98q44 0 60 -24t11 -73h2q74 97 191 97q55 0 93.5 -25.5t39.5 -75.5q83 101 196 101q101 0 138.5 -55.5t18.5 -146.5l-52 -245q-11 -51 -44.5 -76.5t-80.5 -25.5t-69.5 25.5t-11.5 76.5z" />
    <glyph glyph-name="n" unicode="n" 
d="M428 89l42 197q19 88 -58 88q-37 0 -62 -27t-35 -75l-39 -183q-11 -51 -44.5 -76.5t-80.5 -25.5t-69.5 25.5t-11.5 76.5l74 349q21 98 120 98q44 0 60 -24t11 -73h2q74 97 191 97q102 0 139.5 -55.5t18.5 -146.5l-52 -245q-11 -51 -44.5 -76.5t-80.5 -25.5t-69.5 25.5
t-11.5 76.5z" />
    <glyph glyph-name="o" unicode="o" 
d="M96 262q29 136 125 205t226 69t197 -69t38 -205t-125.5 -205.5t-226.5 -69.5t-196.5 69.5t-37.5 205.5zM474 256q30 142 -56 142q-88 0 -118 -142q-27 -131 60 -131t114 131z" />
    <glyph glyph-name="p" unicode="p" 
d="M29 -104l115 540q21 100 113 100q43 0 61 -26.5t9 -67.5h2q21 46 73.5 70t103.5 24q108 0 155 -74.5t20 -201.5q-9 -41 -30.5 -85.5t-55.5 -88t-86.5 -71.5t-113.5 -28q-95 0 -128 80h-2l-36 -171q-22 -103 -122 -103t-78 103zM304 262q-12 -53 4 -83t51 -30
q92 0 118 118q5 29 4.5 55.5t-18 45t-50.5 18.5q-84 0 -109 -124z" />
    <glyph glyph-name="q" unicode="q" 
d="M393 -104l36 171h-2q-67 -80 -162 -80q-49 0 -85.5 19t-55 48t-28 66.5t-9 72.5t7.5 67q27 127 106 201.5t187 74.5q51 0 93 -24t44 -70h2q9 41 38 67.5t72 26.5q92 0 71 -100l-115 -540q-22 -103 -122 -103t-78 103zM474 262q25 124 -57 124q-48 0 -75.5 -34.5
t-38.5 -84.5q-11 -51 4 -84.5t64 -33.5q35 0 63 30t40 83z" />
    <glyph glyph-name="r" unicode="r" horiz-adv-x="481" 
d="M70 89l73 345q11 50 43 76t72 26q42 0 61.5 -25.5t7.5 -80.5l-8 -40h2q43 74 82.5 110t82.5 36t57.5 -28t6.5 -67q-17 -78 -76 -92l-59 -14q-47 -11 -72.5 -33t-36.5 -70l-30 -143q-11 -51 -44.5 -76.5t-80.5 -25.5t-69.5 25.5t-11.5 76.5z" />
    <glyph glyph-name="s" unicode="s" horiz-adv-x="593" 
d="M382 142q4 16 -7.5 28t-49.5 20l-58 13q-103 23 -137.5 62.5t-21.5 100.5q15 71 87 120.5t213 49.5q64 0 116.5 -11.5t84.5 -38t24 -64.5q-6 -27 -29 -45.5t-53 -18.5q-27 0 -50.5 16t-52 32t-70.5 16q-58 0 -66 -37q-3 -16 7 -24.5t48 -17.5l83 -19q175 -40 150 -156
q-17 -78 -95 -129.5t-228 -51.5q-107 0 -172 32.5t-52 94.5q5 26 31 44.5t56 18.5q19 0 37 -12t31.5 -26t40 -26t59.5 -12q31 0 51 12.5t23 28.5z" />
    <glyph glyph-name="t" unicode="t" horiz-adv-x="426" 
d="M213 523l14 66q22 103 122 103t78 -103l-14 -66h60q64 0 51 -60q-12 -60 -76 -60h-60l-49 -227l-3 -15q-4 -24 18 -24q56 0 75 -17t11 -55q-17 -78 -161 -78q-179 0 -143 175l52 241h-38q-64 0 -52 60q13 60 77 60h38z" />
    <glyph glyph-name="u" unicode="u" 
d="M462 251l39 183q11 51 44.5 76.5t80.5 25.5t69.5 -25.5t11.5 -76.5l-74 -349q-21 -98 -120 -98q-44 0 -60 24t-11 73h-2q-74 -97 -191 -97q-102 0 -139.5 55.5t-18.5 146.5l52 245q11 51 44.5 76.5t80.5 25.5t69.5 -25.5t11.5 -76.5l-42 -197q-19 -88 58 -88q37 0 62 27
t35 75z" />
    <glyph glyph-name="v" unicode="v" horiz-adv-x="556" 
d="M320 177l122 266q22 48 46.5 70.5t71.5 22.5q41 0 63 -24t13 -63q-8 -38 -39 -93l-171 -298q-26 -47 -57 -59t-94 -12q-60 0 -85.5 12t-32.5 59l-43 298q-10 66 -4 93q9 39 41 63t73 24q48 0 63.5 -19.5t17.5 -73.5l13 -266h2z" />
    <glyph glyph-name="w" unicode="w" horiz-adv-x="888" 
d="M316 176l110 260q25 62 49.5 81t82.5 19q57 0 72.5 -19t17.5 -81l4 -260h2l127 294q29 66 103 66q44 0 64.5 -24.5t13.5 -60.5q-8 -33 -40 -92l-148 -276q-33 -61 -59.5 -78.5t-81.5 -17.5q-66 0 -93 17.5t-28 81.5l-2 220h-2l-96 -220q-28 -64 -62.5 -81.5t-100.5 -17.5
q-54 0 -73 17.5t-26 78.5l-32 276q-7 61 0 92q7 35 38.5 60t75.5 25q41 0 57.5 -17t17.5 -49l7 -294h2z" />
    <glyph glyph-name="x" unicode="x" horiz-adv-x="518" 
d="M342 391l66 90q24 32 45.5 43.5t49.5 11.5q39 0 62.5 -26.5t16.5 -58.5q-6 -30 -42 -69l-97 -110l52 -112q24 -51 17 -87q-7 -32 -37 -59t-75 -27q-31 0 -48.5 13t-29.5 48l-32 100l-74 -100q-26 -35 -49.5 -48t-54.5 -13q-45 0 -63 27t-11 59q7 35 53 87l100 112
l-51 110q-18 40 -12 69q7 32 41.5 58.5t73.5 26.5q28 0 44.5 -12t27.5 -45z" />
    <glyph glyph-name="y" unicode="y" horiz-adv-x="556" 
d="M319 169l113 250q29 64 56.5 90.5t67.5 26.5t63.5 -23t14.5 -65q-4 -21 -67 -133l-195 -351q-88 -161 -255 -161q-60 0 -86 22.5t-18 63.5q14 64 93 64q53 0 58 25q3 12 -1 40l-44 313q-13 88 -7 117q8 38 42.5 63t77.5 25q69 0 72 -77l13 -290h2z" />
    <glyph glyph-name="z" unicode="z" horiz-adv-x="574" 
d="M321 144h179q38 0 54 -16t7 -56t-31.5 -56t-60.5 -16h-371q-34 0 -47 22.5t-7 52.5q10 46 64 91l263 213h-163q-38 0 -54.5 16t-7.5 56q8 39 31.5 55.5t71.5 16.5h326q37 0 51 -24t5 -64q-5 -25 -15.5 -40.5t-35.5 -36.5z" />
    <glyph glyph-name="braceleft" unicode="{" horiz-adv-x="389" 
d="M101 -43l43 202q8 40 1 53t-34 13q-23 0 -32.5 14t-5.5 34t19.5 34t38.5 14q27 0 40 13.5t21 52.5l43 202q15 69 61 100t137 31h74q45 0 35 -48t-55 -48h-25q-43 0 -56 -58l-40 -191q-21 -96 -131 -101v-2q108 -5 87 -101l-40 -191q-13 -58 30 -58h25q45 0 35 -48
t-55 -48h-74q-91 0 -123.5 31t-18.5 100z" />
    <glyph glyph-name="bar" unicode="|" horiz-adv-x="463" 
d="M361 -277h-108v1113h108v-1113z" />
    <glyph glyph-name="braceright" unicode="}" horiz-adv-x="389" 
d="M404 589l-43 -202q-8 -40 -1 -53t34 -13q23 0 32.5 -14t5.5 -34t-19.5 -34t-38.5 -14q-27 0 -40 -13.5t-21 -52.5l-43 -202q-14 -69 -60.5 -100t-137.5 -31h-74q-45 0 -35 48t55 48h25q43 0 56 58l40 191q21 96 131 101v2q-108 5 -87 101l40 191q13 58 -30 58h-25
q-45 0 -35 48t55 48h74q91 0 124 -31t18 -100z" />
    <glyph glyph-name="asciitilde" unicode="~" horiz-adv-x="600" 
d="M93 245q11 53 60 95.5t110 42.5q47 0 117.5 -34t91.5 -34q29 0 67 30t57 30q42 0 31 -54q-11 -53 -60 -95.5t-110 -42.5q-47 0 -117.5 34t-91.5 34q-29 0 -66.5 -30t-56.5 -30q-43 0 -32 54z" />
    <glyph glyph-name="uni00A0" unicode="&#xa0;" horiz-adv-x="334" 
 />
    <glyph glyph-name="exclamdown" unicode="&#xa1;" horiz-adv-x="370" 
d="M58 -86q21 103 110 309q13 28 29 40t46 12t41.5 -12t11.5 -40q2 -205 -20 -309q-26 -117 -134 -117q-110 0 -84 117zM163 424q10 46 49.5 79t86.5 33q46 0 72 -32.5t16 -79.5q-10 -46 -49.5 -79t-86.5 -33q-46 0 -72 32.5t-16 79.5z" />
    <glyph glyph-name="cent" unicode="&#xa2;" horiz-adv-x="668" 
d="M435 534l15 74q12 53 54 53q44 0 32 -53l-16 -75q84 -9 129 -49t34 -89q-7 -34 -32.5 -55t-57.5 -21q-17 0 -33 11.5t-26.5 25t-30 25t-44.5 11.5q-57 0 -88 -37t-41 -89q-15 -51 0 -93t65 -42q36 0 90.5 36.5t81.5 36.5q35 0 51 -23.5t10 -52.5q-8 -39 -66 -83.5
t-157 -54.5l-21 -99q-12 -53 -54 -53q-44 0 -32 53l21 99q-113 9 -168 78t-28 194q26 124 110 193t202 79z" />
    <glyph glyph-name="sterling" unicode="&#xa3;" horiz-adv-x="668" 
d="M228 284h-65q-22 0 -35 17t-8 40t25.5 40t42.5 17h29q-30 44 -16 108q20 95 111.5 150t202.5 55q125 0 191 -56t51 -129q-7 -36 -36.5 -59.5t-67.5 -23.5q-28 0 -46.5 15.5t-30.5 55.5q-9 27 -25.5 37t-46.5 10q-33 0 -63.5 -20t-38.5 -56q-7 -37 15 -87h113
q22 0 34.5 -17t7.5 -40t-25 -40t-42 -17h-99q-29 -79 -127 -144l2 -2q58 35 100 35q32 0 75.5 -9t61.5 -9q22 0 50 9t44 9q40 0 56 -24.5t9 -58.5q-10 -46 -53.5 -74.5t-121.5 -28.5q-56 0 -119.5 18t-94.5 18q-30 0 -74 -18t-65 -18q-36 0 -55.5 26t-11.5 61
q5 23 22.5 40.5t46.5 39.5t47 43q19 23 27 56q3 17 3 31z" />
    <glyph glyph-name="currency" unicode="&#xa4;" horiz-adv-x="668" 
d="M594 562l26 21q18 15 42 15q20 0 32.5 -16t7.5 -36q-4 -17 -23 -33l-28 -23q29 -61 12 -141t-72 -141l18 -23q13 -16 9 -33q-4 -20 -23 -36t-39 -16q-23 0 -36 15l-16 21q-76 -42 -150 -42q-75 0 -132 42l-26 -21q-17 -15 -42 -15q-20 0 -32 16t-8 36q4 17 23 33l28 23
q-28 63 -12 141q16 77 72 141l-18 23q-13 16 -9 33q5 20 23.5 36t38.5 16q24 0 36 -15l16 -21q76 42 150 42q75 0 132 -42zM537 349q11 53 -18.5 91t-82.5 38t-99.5 -38t-57.5 -91t19 -91t83 -38t99 38t57 91z" />
    <glyph glyph-name="yen" unicode="&#xa5;" horiz-adv-x="668" 
d="M279 226l12 55h-102q-22 0 -35 17t-8 40t25 40t42 17h33l-49 125q-24 59 -15 102q8 36 40.5 62.5t75.5 26.5q66 0 84 -68l47 -192h2l129 192q44 68 112 68q43 0 64.5 -26.5t13.5 -62.5q-9 -43 -57 -102l-103 -125h33q22 0 35 -17t8 -40t-25 -40t-42 -17h-102l-12 -55h102
q22 0 35 -17t8 -40t-25 -40t-42 -17h-102l-1 -5q-12 -55 -48 -87.5t-81 -32.5t-67 32.5t-10 87.5l1 5h-102q-22 0 -35 17t-8 40t25 40t42 17h102z" />
    <glyph glyph-name="brokenbar" unicode="&#xa6;" horiz-adv-x="463" 
d="M361 362h-108v389h108v-389zM361 -194h-108v388h108v-388z" />
    <glyph glyph-name="section" unicode="&#xa7;" horiz-adv-x="667" 
d="M481 300l-137 68q-35 -19 -49 -32.5t-18 -31.5q-7 -28 28 -46l136 -68q36 19 50 32.5t18 31.5q7 28 -28 46zM400 -6q7 33 -50 60l-112 53q-66 31 -91.5 72.5t-12.5 102.5q21 101 135 144q-60 38 -40 136q18 83 87 129t168 46q91 0 149 -39.5t45 -100.5
q-7 -30 -30.5 -48.5t-53.5 -18.5q-19 0 -34.5 13.5t-25.5 30t-28 30t-42 13.5q-67 0 -77 -50q-7 -34 49 -60l112 -53q66 -31 91.5 -72.5t12.5 -102.5q-10 -48 -41.5 -82.5t-92.5 -61.5q58 -39 39 -136q-18 -83 -87 -129t-171 -46q-94 0 -153 39.5t-47 100.5q7 30 30.5 48.5
t54.5 18.5q19 0 34.5 -13.5t25.5 -30t29 -30t45 -13.5q71 0 82 50z" />
    <glyph glyph-name="dieresis" unicode="&#xa8;" horiz-adv-x="278" 
d="M311 673q8 38 40.5 64.5t69.5 26.5q38 0 59 -27t13 -64q-8 -38 -40.5 -64.5t-69.5 -26.5q-38 0 -59 27t-13 64zM71 673q8 38 40.5 64.5t69.5 26.5q38 0 59 -27t13 -64q-8 -38 -40.5 -64.5t-69.5 -26.5q-38 0 -59 27t-13 64z" />
    <glyph glyph-name="copyright" unicode="&#xa9;" horiz-adv-x="800" 
d="M291 363q21 96 87.5 157t157.5 61q74 0 112.5 -39t29.5 -83q-4 -21 -21 -35t-35 -14q-23 0 -33.5 12.5t-12.5 28t-17.5 28t-47.5 12.5q-42 0 -73.5 -34t-43.5 -92q-12 -57 5.5 -93t59.5 -36q29 0 50 13.5t31.5 29t28 29t38.5 13.5t30.5 -12t5.5 -32q-8 -37 -66 -84
t-131 -47q-89 0 -132 62t-23 155zM100 360q33 156 167 266.5t290 110.5t243 -110.5t54 -266.5q-34 -156 -168 -266.5t-290 -110.5t-243 110.5t-53 266.5zM752 360q24 114 -39.5 194.5t-177.5 80.5t-211.5 -80.5t-121.5 -194.5q-25 -114 38.5 -194.5t177.5 -80.5t211.5 80.5
t122.5 194.5z" />
    <glyph glyph-name="ordfeminine" unicode="&#xaa;" horiz-adv-x="434" 
d="M377 497l8 39q-13 -11 -49.5 -16.5t-42.5 -7.5q-21 -6 -25 -28q-4 -15 6.5 -23t28.5 -8q27 0 48.5 13.5t25.5 30.5zM534 618l-29 -137q-2 -10 -4 -29t-4 -27q-9 -44 -73 -44q-33 0 -46 13.5t-11 36.5q-47 -50 -131 -50q-59 0 -88.5 23.5t-18.5 73.5q19 91 205 100
q61 3 66 30q3 15 -8.5 23t-38.5 8q-31 0 -68 -21.5t-58 -21.5q-42 0 -33 44q7 30 59.5 50.5t119.5 20.5q31 0 58.5 -4t54.5 -13t40.5 -28.5t7.5 -47.5z" />
    <glyph glyph-name="guillemotleft" unicode="&#xab;" horiz-adv-x="667" 
d="M240 283l86 -54q23 -15 14 -54q-11 -53 -61 -53q-15 0 -39 16q-62 43 -89 67q-10 9 -12 21.5t6 56.5q8 40 16.5 54.5t22.5 23.5q40 26 118 67q31 16 45 16q50 0 39 -53q-8 -39 -37 -54zM493 283l86 -54q23 -15 14 -54q-11 -53 -61 -53q-15 0 -39 16q-62 43 -89 67
q-10 9 -12 21.5t6 56.5q8 40 16.5 54.5t22.5 23.5q40 26 118 67q31 16 45 16q50 0 39 -53q-8 -39 -37 -54z" />
    <glyph glyph-name="logicalnot" unicode="&#xac;" horiz-adv-x="600" 
d="M186 467h416q48 0 60.5 -17t2.5 -63l-43 -203q-7 -31 -28 -50.5t-50 -19.5t-42 19.5t-6 50.5l32 151h-370q-32 0 -47.5 17.5t-8.5 48.5t29.5 48.5t54.5 17.5z" />
    <glyph glyph-name="uni00AD" unicode="&#xad;" horiz-adv-x="389" 
d="M193 377h163q47 0 65 -25t9 -69q-20 -94 -114 -94h-163q-47 0 -65 25t-9 69q20 94 114 94z" />
    <glyph glyph-name="registered" unicode="&#xae;" horiz-adv-x="800" 
d="M100 360q33 156 167 266.5t290 110.5t243 -110.5t54 -266.5q-34 -156 -168 -266.5t-290 -110.5t-243 110.5t-53 266.5zM752 360q24 114 -39.5 194.5t-177.5 80.5t-211.5 -80.5t-121.5 -194.5q-25 -114 38.5 -194.5t177.5 -80.5t211.5 80.5t122.5 194.5zM507 198l-65 131
h-30l-25 -119q-5 -22 -20.5 -34t-35.5 -12t-30.5 12t-5.5 34l65 307q9 46 65 46h117q73 0 103.5 -27.5t16.5 -94.5q-11 -52 -44 -81t-72 -31l49 -93q9 -18 6 -36q-4 -16 -18 -26t-32 -10q-17 0 -25.5 7.5t-18.5 26.5zM427 401h83q51 0 61 45t-42 45h-83z" />
    <glyph glyph-name="macron" unicode="&#xaf;" horiz-adv-x="278" 
d="M401 613h-264q-27 0 -40 16t-7 44t26 44t47 16h264q27 0 40 -16t7 -44t-26 -44t-47 -16z" />
    <glyph glyph-name="degree" unicode="&#xb0;" horiz-adv-x="400" 
d="M389 556q6 29 -10.5 50t-45.5 21t-54.5 -21t-31.5 -50t10.5 -50t45.5 -21t54.5 21t31.5 50zM163 556q13 64 68 109.5t120 45.5q64 0 100 -45t22 -110q-13 -64 -68 -109.5t-120 -45.5q-64 0 -100 45t-22 110z" />
    <glyph glyph-name="plusminus" unicode="&#xb1;" horiz-adv-x="600" 
d="M325 430l14 66q7 32 28.5 51t52.5 19t44.5 -19t6.5 -51l-14 -66h147q32 0 47.5 -17.5t8.5 -48.5t-29.5 -48.5t-54.5 -17.5h-147l-14 -66q-7 -32 -28.5 -51t-52.5 -19t-44.5 19t-6.5 51l14 66h-147q-32 0 -47.5 17.5t-8.5 48.5t29.5 48.5t54.5 17.5h147zM115 132h426
q32 0 47.5 -17.5t8.5 -48.5t-29.5 -48.5t-54.5 -17.5h-426q-32 0 -47.5 17.5t-8.5 48.5t29.5 48.5t54.5 17.5z" />
    <glyph glyph-name="twosuperior" unicode="&#xb2;" horiz-adv-x="434" 
d="M302 392h130q56 0 45 -54q-12 -54 -68 -54h-265q-25 0 -37 15t-7 35q6 30 33.5 54t122.5 80l68 39q27 16 39.5 29.5t16.5 31.5q4 22 -7.5 34.5t-36.5 12.5q-24 0 -39.5 -12.5t-22 -28t-22.5 -28t-40 -12.5q-64 0 -52 58q10 47 65 83t137 36q95 0 132 -39.5t26 -94.5
q-15 -68 -89 -110l-128 -73z" />
    <glyph glyph-name="threesuperior" unicode="&#xb3;" horiz-adv-x="434" 
d="M354 424q4 18 -5.5 25.5t-30.5 8.5q-30 1 -41.5 12t-7.5 28q9 44 62 44q17 0 32 9t19 26q4 19 -10.5 28.5t-40.5 9.5q-19 0 -31 -7t-33 -28q-24 -24 -51 -24q-28 0 -39 16.5t-6 39.5q9 43 62 71t136 28q77 0 118 -32.5t30 -86.5q-14 -64 -75 -81l-1 -2q31 -9 44 -33
t6 -56q-5 -23 -18 -45.5t-37.5 -46t-69.5 -38t-104 -14.5q-75 0 -116 32t-32 76q5 28 25 44.5t48 16.5q23 0 33.5 -11.5t11 -25t11 -25t33.5 -11.5q67 0 78 52z" />
    <glyph glyph-name="acute" unicode="&#xb4;" horiz-adv-x="278" 
d="M228 678l98 71q46 33 73 33q23 0 39.5 -18t10.5 -43q-6 -29 -39 -53l-98 -71q-46 -33 -73 -33q-23 0 -39.5 18t-10.5 43q6 29 39 53z" />
    <glyph glyph-name="mu" unicode="&#xb5;" 
d="M462 251l39 183q11 51 44.5 76.5t80.5 25.5t69.5 -25.5t11.5 -76.5l-74 -349q-21 -98 -120 -98q-44 0 -60 24t-11 73h-2q-22 -44 -56.5 -70.5t-66.5 -26.5q-43 0 -54 30h-2l-26 -122q-11 -51 -44.5 -76.5t-80.5 -25.5t-69.5 25.5t-11.5 76.5l114 539q11 51 44.5 76.5
t80.5 25.5t69.5 -25.5t11.5 -76.5l-42 -197q-19 -88 58 -88q37 0 62 27t35 75z" />
    <glyph glyph-name="paragraph" unicode="&#xb6;" horiz-adv-x="620" 
d="M423 -99l155 729h-97l-155 -729q-6 -27 -25.5 -43.5t-47.5 -16.5t-40.5 16.5t-6.5 43.5l100 470q-108 0 -156 45t-31 126q22 100 94.5 139t189.5 39h254q28 0 40.5 -16.5t6.5 -43.5l-161 -759q-6 -27 -25.5 -43.5t-47.5 -16.5t-40.5 16.5t-6.5 43.5z" />
    <glyph glyph-name="periodcentered" unicode="&#xb7;" horiz-adv-x="334" 
d="M141 289q8 36 39 61.5t67 25.5t56 -25.5t12 -61.5t-38.5 -61.5t-66.5 -25.5t-56 25.5t-13 61.5z" />
    <glyph glyph-name="cedilla" unicode="&#xb8;" horiz-adv-x="278" 
d="M105 1h68q-27 -19 -50 -50q36 3 39 3q36 0 57 -19t13 -56q-8 -41 -48.5 -67.5t-119.5 -26.5q-52 0 -71.5 11t-15.5 30q6 29 33 29q7 0 26.5 -5t36.5 -5q32 0 38 29q2 10 -2.5 17.5t-14.5 7.5h-30q-13 0 -19.5 5t-4.5 17q3 13 14.5 27.5t50.5 52.5z" />
    <glyph glyph-name="onesuperior" unicode="&#xb9;" horiz-adv-x="337" 
d="M233 536h-71q-48 0 -39 42q5 24 21.5 33t45.5 9q15 0 46 17.5t47 35.5q35 38 71 38q26 0 37.5 -10.5t7.5 -31.5l-70 -332q-6 -30 -28.5 -45.5t-53.5 -15.5t-46.5 15.5t-9.5 45.5z" />
    <glyph glyph-name="ordmasculine" unicode="&#xba;" horiz-adv-x="434" 
d="M143 546q17 82 79 123.5t146 41.5t128 -41.5t27 -123.5t-79 -123.5t-146 -41.5t-128 41.5t-27 123.5zM384 543q19 84 -34 84q-51 0 -70 -84q-16 -78 36 -78t68 78z" />
    <glyph glyph-name="guillemotright" unicode="&#xbb;" horiz-adv-x="667" 
d="M294 283l-85 54q-15 9 -17.5 22.5t2.5 31.5q11 53 61 53q15 0 39 -16q66 -46 90 -67q10 -10 11.5 -22t-6.5 -56q-8 -39 -16 -54t-22 -24q-36 -23 -119 -67q-31 -16 -45 -16q-50 0 -39 53q5 21 12.5 33t25.5 21zM547 283l-85 54q-15 9 -17.5 22.5t2.5 31.5q11 53 61 53
q15 0 39 -16q66 -46 90 -67q10 -10 11.5 -22t-6.5 -56q-8 -39 -16 -54t-22 -24q-36 -23 -119 -67q-31 -16 -45 -16q-50 0 -39 53q5 21 12.5 33t25.5 21z" />
    <glyph glyph-name="onequarter" unicode="&#xbc;" horiz-adv-x="1000" 
d="M776 52l6 28h-153q-61 0 -47 65q5 30 44 65l192 173q27 25 44.5 33.5t42.5 8.5q36 0 52.5 -16.5t10.5 -46.5l-40 -186q31 0 45 -11t8 -37q-9 -48 -73 -48l-6 -28q-6 -30 -26 -47.5t-51 -17.5q-62 0 -49 65zM802 176l28 128h-2l-134 -128h108zM250 40l447 633q30 43 47 55
t39 12q18 0 30 -15t9 -27q-4 -16 -21 -40l-448 -633q-30 -43 -47 -55t-39 -12q-18 0 -30 14.5t-9 27.5q3 14 22 40zM233 536h-71q-48 0 -39 42q5 24 21.5 33t45.5 9q15 0 46 17.5t47 35.5q35 38 71 38q26 0 37.5 -10.5t7.5 -31.5l-70 -332q-6 -30 -28.5 -45.5t-53.5 -15.5
t-46.5 15.5t-9.5 45.5z" />
    <glyph glyph-name="onehalf" unicode="&#xbd;" horiz-adv-x="1000" 
d="M227 40l447 633q30 43 47 55t39 12q18 0 30 -15t9 -27q-4 -16 -21 -40l-448 -633q-30 -43 -47 -55t-39 -12q-18 0 -30 14.5t-9 27.5q3 14 22 40zM233 536h-71q-48 0 -39 42q5 24 21.5 33t45.5 9q15 0 46 17.5t47 35.5q35 38 71 38q26 0 37.5 -10.5t7.5 -31.5l-70 -332
q-6 -30 -28.5 -45.5t-53.5 -15.5t-46.5 15.5t-9.5 45.5zM791 108h130q56 0 44 -54q-11 -54 -67 -54h-265q-25 0 -37 15t-7 35q6 29 33 53.5t123 80.5l67 39q49 29 56 61q5 22 -7 34.5t-37 12.5q-24 0 -39.5 -12.5t-22 -28t-22.5 -28t-40 -12.5q-64 0 -52 58q11 47 66 83
t137 36q95 0 132 -39.5t25 -94.5q-13 -67 -88 -110l-129 -73v-2z" />
    <glyph glyph-name="threequarters" unicode="&#xbe;" horiz-adv-x="1000" 
d="M776 52l6 28h-153q-61 0 -47 65q5 30 44 65l192 173q27 25 44.5 33.5t42.5 8.5q36 0 52.5 -16.5t10.5 -46.5l-40 -186q31 0 45 -11t8 -37q-9 -48 -73 -48l-6 -28q-6 -30 -26 -47.5t-51 -17.5q-62 0 -49 65zM802 176l28 128h-2l-134 -128h108zM307 40l447 633q30 43 47 55
t39 12q18 0 30 -15t9 -27q-4 -16 -21 -40l-448 -633q-30 -43 -47 -55t-39 -12q-18 0 -30 14.5t-9 27.5q3 14 22 40zM358 424q4 18 -5.5 25.5t-30.5 8.5q-30 1 -41.5 12t-7.5 28q9 44 62 44q17 0 32 9t19 26q4 19 -10.5 28.5t-40.5 9.5q-19 0 -31 -7t-33 -28q-24 -24 -51 -24
q-28 0 -39 16.5t-6 39.5q9 43 62 71t136 28q77 0 118 -32.5t30 -86.5q-14 -64 -75 -81l-1 -2q31 -9 44 -33t6 -56q-5 -23 -18 -45.5t-37.5 -46t-69.5 -38t-104 -14.5q-76 0 -117 32t-32 76q5 28 25 44.5t48 16.5q23 0 33.5 -11.5t11 -25t11 -25t34.5 -11.5q67 0 78 52z" />
    <glyph glyph-name="questiondown" unicode="&#xbf;" horiz-adv-x="593" 
d="M249 -2q-6 -29 10 -42t47 -13q55 0 101 51q30 34 48.5 44t48.5 10q41 0 62 -21t13 -60q-13 -60 -97 -117t-209 -57q-134 0 -194.5 58.5t-42.5 143.5q10 47 36.5 82.5t59 55.5t65 35t61.5 31t41 34q19 29 42 39t60 10q41 0 55.5 -21.5t6.5 -57.5q-15 -72 -118 -120
q-54 -25 -72 -40.5t-24 -44.5zM529 424q-10 -46 -49.5 -79t-86.5 -33q-46 0 -72 32.5t-16 79.5q10 46 49.5 79t86.5 33q46 0 72 -32.5t16 -79.5z" />
    <glyph glyph-name="Agrave" unicode="&#xc0;" horiz-adv-x="684" 
d="M484 97h-242l-28 -53q-14 -28 -44 -42.5t-61 -14.5q-40 0 -66.5 27t-18.5 66q7 32 64 134l244 426q28 47 58 70t72 23h72q42 0 62.5 -23t27.5 -70l62 -426q15 -102 8 -134q-8 -39 -46 -66t-79 -27q-31 0 -54.5 14.5t-26.5 42.5zM472 241l-22 263h-2l-134 -263h158z
M466 799l-68 71q-23 23 -17 53q6 25 30 43t46 18q16 0 27.5 -6t31.5 -27l68 -71q23 -23 17 -53q-6 -25 -30 -43t-46 -18q-16 0 -27.5 6t-31.5 27z" />
    <glyph glyph-name="Aacute" unicode="&#xc1;" horiz-adv-x="684" 
d="M484 97h-242l-28 -53q-14 -28 -44 -42.5t-61 -14.5q-40 0 -66.5 27t-18.5 66q7 32 64 134l244 426q28 47 58 70t72 23h72q42 0 62.5 -23t27.5 -70l62 -426q15 -102 8 -134q-8 -39 -46 -66t-79 -27q-31 0 -54.5 14.5t-26.5 42.5zM472 241l-22 263h-2l-134 -263h158z
M474 880l98 71q46 33 73 33q23 0 39.5 -18t10.5 -43q-6 -29 -39 -53l-98 -71q-46 -33 -73 -33q-23 0 -39.5 18t-10.5 43q6 29 39 53z" />
    <glyph glyph-name="Acircumflex" unicode="&#xc2;" horiz-adv-x="684" 
d="M484 97h-242l-28 -53q-14 -28 -44 -42.5t-61 -14.5q-40 0 -66.5 27t-18.5 66q7 32 64 134l244 426q28 47 58 70t72 23h72q42 0 62.5 -23t27.5 -70l62 -426q15 -102 8 -134q-8 -39 -46 -66t-79 -27q-31 0 -54.5 14.5t-26.5 42.5zM472 241l-22 263h-2l-134 -263h158z
M339 836q5 31 102 96q50 34 68.5 42.5t41.5 8.5t38 -8.5t50 -42.5q68 -63 62 -96q-5 -23 -24.5 -41t-44.5 -18q-31 0 -108 81q-110 -81 -142 -81q-25 0 -36.5 18t-6.5 41z" />
    <glyph glyph-name="Atilde" unicode="&#xc3;" horiz-adv-x="684" 
d="M484 97h-242l-28 -53q-14 -28 -44 -42.5t-61 -14.5q-40 0 -66.5 27t-18.5 66q7 32 64 134l244 426q28 47 58 70t72 23h72q42 0 62.5 -23t27.5 -70l62 -426q15 -102 8 -134q-8 -39 -46 -66t-79 -27q-31 0 -54.5 14.5t-26.5 42.5zM472 241l-22 263h-2l-134 -263h158z
M337 853q8 37 45 68t81 31q38 0 76.5 -16t48.5 -16q18 0 43 16t45 16q22 0 34.5 -16.5t7.5 -40.5q-8 -37 -45 -68t-81 -31q-38 0 -76 16t-48 16q-17 0 -42.5 -16t-46.5 -16q-22 0 -34.5 16.5t-7.5 40.5z" />
    <glyph glyph-name="Adieresis" unicode="&#xc4;" horiz-adv-x="684" 
d="M484 97h-242l-28 -53q-14 -28 -44 -42.5t-61 -14.5q-40 0 -66.5 27t-18.5 66q7 32 64 134l244 426q28 47 58 70t72 23h72q42 0 62.5 -23t27.5 -70l62 -426q15 -102 8 -134q-8 -39 -46 -66t-79 -27q-31 0 -54.5 14.5t-26.5 42.5zM472 241l-22 263h-2l-134 -263h158z
M557 875q8 38 40.5 64.5t69.5 26.5q38 0 59 -27t13 -64q-8 -38 -40.5 -64.5t-69.5 -26.5q-38 0 -59 27t-13 64zM317 875q8 38 40.5 64.5t69.5 26.5q38 0 59 -27t13 -64q-8 -38 -40.5 -64.5t-69.5 -26.5q-38 0 -59 27t-13 64z" />
    <glyph glyph-name="Aring" unicode="&#xc5;" horiz-adv-x="684" 
d="M484 97h-242l-28 -53q-14 -28 -44 -42.5t-61 -14.5q-40 0 -66.5 27t-18.5 66q7 32 64 134l244 426q28 47 58 70t72 23h72q42 0 62.5 -23t27.5 -70l62 -426q15 -102 8 -134q-8 -39 -46 -66t-79 -27q-31 0 -54.5 14.5t-26.5 42.5zM472 241l-22 263h-2l-134 -263h158z
M410 881q10 49 52.5 84t92.5 35q49 0 76.5 -34.5t16.5 -84.5t-53 -84.5t-91 -34.5q-50 0 -77 35t-17 84zM476 881q-5 -22 7.5 -37.5t34.5 -15.5t41 15.5t23 37.5q5 22 -7 37.5t-34 15.5t-41.5 -15.5t-23.5 -37.5z" />
    <glyph glyph-name="AE" unicode="&#xc6;" horiz-adv-x="981" 
d="M450 101h-191q-31 -64 -61.5 -89t-78.5 -25q-46 0 -69.5 26t-13.5 72q6 29 80 167l193 365q32 60 59 81.5t74 21.5h560q50 0 70.5 -22.5t11.5 -61.5q-8 -39 -38 -61.5t-80 -22.5h-197l-21 -101h166q50 0 70.5 -22.5t11.5 -61.5q-18 -84 -118 -84h-166l-24 -115h197
q50 0 70 -22.5t12 -61.5q-18 -84 -118 -84h-324q-93 0 -75 101zM481 251l64 301h-60l-151 -301h147z" />
    <glyph glyph-name="Ccedilla" unicode="&#xc7;" horiz-adv-x="741" 
d="M121 360q38 179 168 278t284 99q125 0 198.5 -61.5t56.5 -141.5q-10 -43 -46.5 -71t-84.5 -28q-32 0 -46 11t-29 49q-14 35 -37 48.5t-63 13.5q-56 0 -103.5 -52.5t-67.5 -144.5q-19 -91 5.5 -144t94.5 -53q32 0 56.5 14.5t68.5 61.5q43 48 94 48q46 0 70.5 -28.5
t15.5 -72.5q-13 -60 -72.5 -108t-132 -71.5t-139.5 -23.5h-10q-10 -8 -29 -32q36 3 39 3q36 0 57 -19t13 -56q-8 -41 -48.5 -67.5t-119.5 -26.5q-52 0 -71.5 11t-15.5 30q6 29 33 29q8 0 27 -5t36 -5q32 0 38 29q2 10 -2.5 17.5t-14.5 7.5h-30q-13 0 -19.5 5t-4.5 17
q4 21 54 68q-128 19 -193 113.5t-30 257.5z" />
    <glyph glyph-name="Egrave" unicode="&#xc8;" horiz-adv-x="722" 
d="M111 137l95 446q15 71 54 104t106 33h366q50 0 70.5 -22.5t11.5 -61.5q-8 -39 -38 -61.5t-80 -22.5h-267l-21 -101h214q50 0 70.5 -22.5t11.5 -61.5q-18 -84 -118 -84h-214l-24 -115h278q50 0 70 -22.5t12 -61.5q-18 -84 -118 -84h-377q-67 0 -92 32.5t-10 104.5z
M485 799l-68 71q-23 23 -17 53q6 25 30 43t46 18q16 0 27.5 -6t31.5 -27l68 -71q23 -23 17 -53q-6 -25 -30 -43t-46 -18q-16 0 -27.5 6t-31.5 27z" />
    <glyph glyph-name="Eacute" unicode="&#xc9;" horiz-adv-x="722" 
d="M111 137l95 446q15 71 54 104t106 33h366q50 0 70.5 -22.5t11.5 -61.5q-8 -39 -38 -61.5t-80 -22.5h-267l-21 -101h214q50 0 70.5 -22.5t11.5 -61.5q-18 -84 -118 -84h-214l-24 -115h278q50 0 70 -22.5t12 -61.5q-18 -84 -118 -84h-377q-67 0 -92 32.5t-10 104.5z
M493 880l98 71q46 33 73 33q23 0 39.5 -18t10.5 -43q-6 -29 -39 -53l-98 -71q-46 -33 -73 -33q-23 0 -39.5 18t-10.5 43q6 29 39 53z" />
    <glyph glyph-name="Ecircumflex" unicode="&#xca;" horiz-adv-x="722" 
d="M111 137l95 446q15 71 54 104t106 33h366q50 0 70.5 -22.5t11.5 -61.5q-8 -39 -38 -61.5t-80 -22.5h-267l-21 -101h214q50 0 70.5 -22.5t11.5 -61.5q-18 -84 -118 -84h-214l-24 -115h278q50 0 70 -22.5t12 -61.5q-18 -84 -118 -84h-377q-67 0 -92 32.5t-10 104.5z
M358 836q5 31 102 96q50 34 68.5 42.5t41.5 8.5t38 -8.5t50 -42.5q68 -63 62 -96q-5 -23 -24.5 -41t-44.5 -18q-31 0 -108 81q-110 -81 -142 -81q-25 0 -36.5 18t-6.5 41z" />
    <glyph glyph-name="Edieresis" unicode="&#xcb;" horiz-adv-x="722" 
d="M111 137l95 446q15 71 54 104t106 33h366q50 0 70.5 -22.5t11.5 -61.5q-8 -39 -38 -61.5t-80 -22.5h-267l-21 -101h214q50 0 70.5 -22.5t11.5 -61.5q-18 -84 -118 -84h-214l-24 -115h278q50 0 70 -22.5t12 -61.5q-18 -84 -118 -84h-377q-67 0 -92 32.5t-10 104.5z
M576 875q8 38 40.5 64.5t69.5 26.5q38 0 59 -27t13 -64q-8 -38 -40.5 -64.5t-69.5 -26.5q-38 0 -59 27t-13 64zM336 875q8 38 40.5 64.5t69.5 26.5q38 0 59 -27t13 -64q-8 -38 -40.5 -64.5t-69.5 -26.5q-38 0 -59 27t-13 64z" />
    <glyph glyph-name="Igrave" unicode="&#xcc;" horiz-adv-x="388" 
d="M103 111l105 498q13 58 51 91t91 33t77 -33t11 -91l-105 -498q-13 -58 -51 -91t-91 -33t-77 33t-11 91zM318 799l-68 71q-23 23 -17 53q6 25 30 43t46 18q16 0 27.5 -6t31.5 -27l68 -71q23 -23 17 -53q-6 -25 -30 -43t-46 -18q-16 0 -27.5 6t-31.5 27z" />
    <glyph glyph-name="Iacute" unicode="&#xcd;" horiz-adv-x="388" 
d="M103 111l105 498q13 58 51 91t91 33t77 -33t11 -91l-105 -498q-13 -58 -51 -91t-91 -33t-77 33t-11 91zM326 880l98 71q46 33 73 33q23 0 39.5 -18t10.5 -43q-6 -29 -39 -53l-98 -71q-46 -33 -73 -33q-23 0 -39.5 18t-10.5 43q6 29 39 53z" />
    <glyph glyph-name="Icircumflex" unicode="&#xce;" horiz-adv-x="388" 
d="M103 111l105 498q13 58 51 91t91 33t77 -33t11 -91l-105 -498q-13 -58 -51 -91t-91 -33t-77 33t-11 91zM191 836q5 31 102 96q50 34 68.5 42.5t41.5 8.5t38 -8.5t50 -42.5q68 -63 62 -96q-5 -23 -24.5 -41t-44.5 -18q-31 0 -108 81q-110 -81 -142 -81q-25 0 -36.5 18
t-6.5 41z" />
    <glyph glyph-name="Idieresis" unicode="&#xcf;" horiz-adv-x="388" 
d="M103 111l105 498q13 58 51 91t91 33t77 -33t11 -91l-105 -498q-13 -58 -51 -91t-91 -33t-77 33t-11 91zM409 875q8 38 40.5 64.5t69.5 26.5q38 0 59 -27t13 -64q-8 -38 -40.5 -64.5t-69.5 -26.5q-38 0 -59 27t-13 64zM169 875q8 38 40.5 64.5t69.5 26.5q38 0 59 -27
t13 -64q-8 -38 -40.5 -64.5t-69.5 -26.5q-38 0 -59 27t-13 64z" />
    <glyph glyph-name="Eth" unicode="&#xd0;" horiz-adv-x="778" 
d="M98 137l34 158h-15q-32 0 -47.5 17.5t-8.5 48.5t29.5 48.5t54.5 17.5h15l33 156q15 71 54 104t106 33h213q153 0 219 -100t32 -260q-35 -160 -143 -260t-261 -100h-213q-67 0 -92 32.5t-10 104.5zM356 295l-25 -115h51q95 0 140 44t65 136q19 92 -7 136t-121 44h-51
l-24 -113h31q32 0 47.5 -17.5t8.5 -48.5t-29.5 -48.5t-54.5 -17.5h-31z" />
    <glyph glyph-name="Ntilde" unicode="&#xd1;" horiz-adv-x="833" 
d="M603 321l64 301q11 51 48 83t89 32t75 -32t12 -83l-112 -529q-12 -56 -53.5 -83t-100.5 -27q-47 0 -72.5 18.5t-45.5 71.5l-125 314h-2l-60 -284q-12 -58 -48 -89t-90 -31t-76 31t-10 89l109 511q12 59 52.5 91t105.5 32q83 0 110 -70l128 -346h2zM412 853q8 37 45 68
t81 31q38 0 76.5 -16t48.5 -16q17 0 42 16t46 16q22 0 34.5 -16.5t7.5 -40.5q-8 -37 -45 -68t-81 -31q-38 0 -76 16t-48 16q-17 0 -42.5 -16t-46.5 -16q-22 0 -34.5 16.5t-7.5 40.5z" />
    <glyph glyph-name="Ograve" unicode="&#xd2;" horiz-adv-x="832" 
d="M635 360q19 91 -6 144t-95 53t-117 -53t-66 -144t5.5 -144t94.5 -53t117.5 53t66.5 144zM121 360q38 179 168 278t284 99q73 0 133.5 -23.5t104 -70.5t58.5 -118t-4 -165q-27 -125 -99.5 -212.5t-162.5 -126t-191 -38.5q-74 0 -134.5 22t-104.5 68.5t-57.5 117.5t5.5 169
zM540 799l-68 71q-23 23 -17 53q6 25 30 43t46 18q16 0 27.5 -6t31.5 -27l68 -71q23 -23 17 -53q-6 -25 -30 -43t-46 -18q-16 0 -27.5 6t-31.5 27z" />
    <glyph glyph-name="Oacute" unicode="&#xd3;" horiz-adv-x="832" 
d="M635 360q19 91 -6 144t-95 53t-117 -53t-66 -144t5.5 -144t94.5 -53t117.5 53t66.5 144zM121 360q38 179 168 278t284 99q73 0 133.5 -23.5t104 -70.5t58.5 -118t-4 -165q-27 -125 -99.5 -212.5t-162.5 -126t-191 -38.5q-74 0 -134.5 22t-104.5 68.5t-57.5 117.5t5.5 169
zM548 880l98 71q46 33 73 33q23 0 39.5 -18t10.5 -43q-6 -29 -39 -53l-98 -71q-46 -33 -73 -33q-23 0 -39.5 18t-10.5 43q6 29 39 53z" />
    <glyph glyph-name="Ocircumflex" unicode="&#xd4;" horiz-adv-x="832" 
d="M635 360q19 91 -6 144t-95 53t-117 -53t-66 -144t5.5 -144t94.5 -53t117.5 53t66.5 144zM121 360q38 179 168 278t284 99q73 0 133.5 -23.5t104 -70.5t58.5 -118t-4 -165q-27 -125 -99.5 -212.5t-162.5 -126t-191 -38.5q-74 0 -134.5 22t-104.5 68.5t-57.5 117.5t5.5 169
zM413 836q5 31 102 96q50 34 68.5 42.5t41.5 8.5t38 -8.5t50 -42.5q68 -63 62 -96q-5 -23 -24.5 -41t-44.5 -18q-31 0 -108 81q-110 -81 -142 -81q-25 0 -36.5 18t-6.5 41z" />
    <glyph glyph-name="Otilde" unicode="&#xd5;" horiz-adv-x="832" 
d="M635 360q19 91 -6 144t-95 53t-117 -53t-66 -144t5.5 -144t94.5 -53t117.5 53t66.5 144zM121 360q38 179 168 278t284 99q73 0 133.5 -23.5t104 -70.5t58.5 -118t-4 -165q-27 -125 -99.5 -212.5t-162.5 -126t-191 -38.5q-74 0 -134.5 22t-104.5 68.5t-57.5 117.5t5.5 169
zM411 853q8 37 45 68t81 31q38 0 76.5 -16t48.5 -16q18 0 43 16t45 16q22 0 34.5 -16.5t7.5 -40.5q-8 -37 -45 -68t-81 -31q-38 0 -76 16t-48 16q-18 0 -43.5 -16t-45.5 -16q-22 0 -34.5 16.5t-7.5 40.5z" />
    <glyph glyph-name="Odieresis" unicode="&#xd6;" horiz-adv-x="832" 
d="M635 360q19 91 -6 144t-95 53t-117 -53t-66 -144t5.5 -144t94.5 -53t117.5 53t66.5 144zM121 360q38 179 168 278t284 99q73 0 133.5 -23.5t104 -70.5t58.5 -118t-4 -165q-27 -125 -99.5 -212.5t-162.5 -126t-191 -38.5q-74 0 -134.5 22t-104.5 68.5t-57.5 117.5t5.5 169
zM631 875q8 38 40.5 64.5t69.5 26.5q38 0 59 -27t13 -64q-8 -38 -40.5 -64.5t-69.5 -26.5q-38 0 -59 27t-13 64zM391 875q8 38 40.5 64.5t69.5 26.5q38 0 59 -27t13 -64q-8 -38 -40.5 -64.5t-69.5 -26.5q-38 0 -59 27t-13 64z" />
    <glyph glyph-name="multiply" unicode="&#xd7;" horiz-adv-x="600" 
d="M379 373l167 137q24 19 44 19q25 0 42 -23t12 -48q-4 -19 -27 -38l-167 -137l109 -138q15 -20 10 -40q-5 -25 -32.5 -47t-52.5 -22q-19 0 -34 19l-109 138l-167 -138q-23 -19 -42 -19q-25 0 -43.5 22t-13.5 47q6 22 28 40l167 138l-109 137q-15 19 -11 38q5 25 32 48
t52 23q22 0 36 -19z" />
    <glyph glyph-name="Oslash" unicode="&#xd8;" horiz-adv-x="832" 
d="M642 419l-268 -227q26 -29 77 -29q70 0 117.5 53t66.5 144q5 29 7 59zM343 301l268 227q-27 29 -77 29q-70 0 -117 -53t-66 -144q-6 -26 -8 -59zM780 671l74 63q28 25 60 25q22 0 35.5 -15.5t9.5 -36.5q-3 -14 -13 -26.5t-36 -34.5l-64 -55q47 -95 19 -231
q-27 -125 -99.5 -212.5t-162.5 -126t-191 -38.5q-129 0 -209 64l-72 -61q-28 -25 -60 -25q-22 0 -35.5 15.5t-9.5 36.5q3 14 13 26.5t36 34.5l62 53q-46 96 -16 233q38 179 168 278t284 99q126 0 207 -66z" />
    <glyph glyph-name="Ugrave" unicode="&#xd9;" horiz-adv-x="832" 
d="M592 281l69 328q13 58 51 91t91 33t77 -33t11 -91l-70 -330q-33 -155 -141 -225.5t-268 -70.5q-77 0 -134.5 15.5t-98.5 50.5t-53 91.5t3 138.5l70 330q13 58 51 91t91 33t77 -33t11 -91l-69 -328q-26 -124 89 -124q59 0 95 33t48 91zM540 799l-68 71q-23 23 -17 53
q6 25 30 43t46 18q16 0 27.5 -6t31.5 -27l68 -71q23 -23 17 -53q-6 -25 -30 -43t-46 -18q-16 0 -27.5 6t-31.5 27z" />
    <glyph glyph-name="Uacute" unicode="&#xda;" horiz-adv-x="832" 
d="M592 281l69 328q13 58 51 91t91 33t77 -33t11 -91l-70 -330q-33 -155 -141 -225.5t-268 -70.5q-77 0 -134.5 15.5t-98.5 50.5t-53 91.5t3 138.5l70 330q13 58 51 91t91 33t77 -33t11 -91l-69 -328q-26 -124 89 -124q59 0 95 33t48 91zM548 880l98 71q46 33 73 33
q23 0 39.5 -18t10.5 -43q-6 -29 -39 -53l-98 -71q-46 -33 -73 -33q-23 0 -39.5 18t-10.5 43q6 29 39 53z" />
    <glyph glyph-name="Ucircumflex" unicode="&#xdb;" horiz-adv-x="832" 
d="M592 281l69 328q13 58 51 91t91 33t77 -33t11 -91l-70 -330q-33 -155 -141 -225.5t-268 -70.5q-77 0 -134.5 15.5t-98.5 50.5t-53 91.5t3 138.5l70 330q13 58 51 91t91 33t77 -33t11 -91l-69 -328q-26 -124 89 -124q59 0 95 33t48 91zM413 836q5 31 102 96
q50 34 68.5 42.5t41.5 8.5t38 -8.5t50 -42.5q68 -63 62 -96q-5 -23 -24.5 -41t-44.5 -18q-31 0 -108 81q-110 -81 -142 -81q-25 0 -36.5 18t-6.5 41z" />
    <glyph glyph-name="Udieresis" unicode="&#xdc;" horiz-adv-x="832" 
d="M592 281l69 328q13 58 51 91t91 33t77 -33t11 -91l-70 -330q-33 -155 -141 -225.5t-268 -70.5q-77 0 -134.5 15.5t-98.5 50.5t-53 91.5t3 138.5l70 330q13 58 51 91t91 33t77 -33t11 -91l-69 -328q-26 -124 89 -124q59 0 95 33t48 91zM631 875q8 38 40.5 64.5t69.5 26.5
q38 0 59 -27t13 -64q-8 -38 -40.5 -64.5t-69.5 -26.5q-38 0 -59 27t-13 64zM391 875q8 38 40.5 64.5t69.5 26.5q38 0 59 -27t13 -64q-8 -38 -40.5 -64.5t-69.5 -26.5q-38 0 -59 27t-13 64z" />
    <glyph glyph-name="Yacute" unicode="&#xdd;" 
d="M433 470l134 193q49 70 122 70q46 0 71 -32.5t16 -76.5q-6 -28 -46 -79l-227 -287l-31 -147q-13 -58 -51 -91t-91 -33t-77 33t-11 91l31 147l-105 287q-18 50 -12 79q9 44 48 76.5t85 32.5q73 0 92 -70zM465 880l98 71q46 33 73 33q23 0 39.5 -18t10.5 -43
q-6 -29 -39 -53l-98 -71q-46 -33 -73 -33q-23 0 -39.5 18t-10.5 43q6 29 39 53z" />
    <glyph glyph-name="Thorn" unicode="&#xde;" horiz-adv-x="778" 
d="M105 107l107 506q13 58 48.5 89t89.5 31t76.5 -31t9.5 -89h115q146 0 218 -56t43 -193q-52 -248 -366 -248h-115l-2 -9q-13 -58 -48.5 -89t-89.5 -31t-76.5 31t-9.5 89zM368 290h127q31 0 58.5 19t34.5 54q7 36 -12 56t-61 20h-116z" />
    <glyph glyph-name="germandbls" unicode="&#xdf;" 
d="M70 89l89 418q24 113 104.5 171.5t207.5 58.5q131 0 190 -51.5t41 -140.5q-24 -108 -139 -139v-2q70 -4 98 -56t12 -125q-21 -101 -95 -168.5t-174 -67.5q-49 0 -75.5 16.5t-16.5 61.5q5 23 24.5 41.5t41.5 18.5q29 0 49.5 18.5t33.5 76.5q18 83 -15 105q-6 4 -28.5 12.5
t-31.5 21t-4 36.5q9 46 57 59q24 7 37.5 21.5t21.5 52.5q8 35 -4 56t-46 21q-63 0 -77 -71l-95 -445q-11 -51 -44.5 -76.5t-80.5 -25.5t-69.5 25.5t-11.5 76.5z" />
    <glyph glyph-name="agrave" unicode="&#xe0;" 
d="M452 176l13 59q-21 -18 -76.5 -27t-65.5 -13q-30 -12 -37 -43q-4 -23 11 -37t41 -14q42 0 75 22.5t39 52.5zM696 382l-48 -229q-4 -20 -8 -51.5t-6 -41.5q-8 -36 -40 -54.5t-72 -18.5q-50 0 -69 22t-17 61q-73 -83 -202 -83q-90 0 -134 39.5t-26 122.5q15 71 84 113.5
t216 51.5q60 4 86.5 14.5t32.5 36.5q5 25 -13.5 38t-59.5 13q-47 0 -104.5 -35.5t-90.5 -35.5q-31 0 -44.5 16.5t-6.5 47.5q12 57 90.5 92t187.5 35q47 0 89 -6.5t83.5 -22t61.5 -47.5t10 -78zM414 597l-68 71q-23 23 -17 53q6 25 30 43t46 18q16 0 27.5 -6t31.5 -27l68 -71
q23 -23 17 -53q-6 -25 -30 -43t-46 -18q-16 0 -27.5 6t-31.5 27z" />
    <glyph glyph-name="aacute" unicode="&#xe1;" 
d="M452 176l13 59q-21 -18 -76.5 -27t-65.5 -13q-30 -12 -37 -43q-4 -23 11 -37t41 -14q42 0 75 22.5t39 52.5zM696 382l-48 -229q-4 -20 -8 -51.5t-6 -41.5q-8 -36 -40 -54.5t-72 -18.5q-50 0 -69 22t-17 61q-73 -83 -202 -83q-90 0 -134 39.5t-26 122.5q15 71 84 113.5
t216 51.5q60 4 86.5 14.5t32.5 36.5q5 25 -13.5 38t-59.5 13q-47 0 -104.5 -35.5t-90.5 -35.5q-31 0 -44.5 16.5t-6.5 47.5q12 57 90.5 92t187.5 35q47 0 89 -6.5t83.5 -22t61.5 -47.5t10 -78zM422 678l98 71q46 33 73 33q23 0 39.5 -18t10.5 -43q-6 -29 -39 -53l-98 -71
q-46 -33 -73 -33q-23 0 -39.5 18t-10.5 43q6 29 39 53z" />
    <glyph glyph-name="acircumflex" unicode="&#xe2;" 
d="M452 176l13 59q-21 -18 -76.5 -27t-65.5 -13q-30 -12 -37 -43q-4 -23 11 -37t41 -14q42 0 75 22.5t39 52.5zM696 382l-48 -229q-4 -20 -8 -51.5t-6 -41.5q-8 -36 -40 -54.5t-72 -18.5q-50 0 -69 22t-17 61q-73 -83 -202 -83q-90 0 -134 39.5t-26 122.5q15 71 84 113.5
t216 51.5q60 4 86.5 14.5t32.5 36.5q5 25 -13.5 38t-59.5 13q-47 0 -104.5 -35.5t-90.5 -35.5q-31 0 -44.5 16.5t-6.5 47.5q12 57 90.5 92t187.5 35q47 0 89 -6.5t83.5 -22t61.5 -47.5t10 -78zM287 634q5 31 102 96q50 34 68.5 42.5t41.5 8.5t38 -8.5t50 -42.5
q68 -63 62 -96q-5 -23 -24.5 -41t-44.5 -18q-31 0 -108 81q-110 -81 -142 -81q-25 0 -36.5 18t-6.5 41z" />
    <glyph glyph-name="atilde" unicode="&#xe3;" 
d="M452 176l13 59q-21 -18 -76.5 -27t-65.5 -13q-30 -12 -37 -43q-4 -23 11 -37t41 -14q42 0 75 22.5t39 52.5zM696 382l-48 -229q-4 -20 -8 -51.5t-6 -41.5q-8 -36 -40 -54.5t-72 -18.5q-50 0 -69 22t-17 61q-73 -83 -202 -83q-90 0 -134 39.5t-26 122.5q15 71 84 113.5
t216 51.5q60 4 86.5 14.5t32.5 36.5q5 25 -13.5 38t-59.5 13q-47 0 -104.5 -35.5t-90.5 -35.5q-31 0 -44.5 16.5t-6.5 47.5q12 57 90.5 92t187.5 35q47 0 89 -6.5t83.5 -22t61.5 -47.5t10 -78zM285 651q8 37 45 68t81 31q38 0 76.5 -16t48.5 -16q18 0 43 16t45 16
q22 0 34.5 -16.5t7.5 -40.5q-7 -37 -44.5 -68t-81.5 -31q-38 0 -76 16t-48 16q-18 0 -43 -16t-46 -16q-22 0 -34.5 16.5t-7.5 40.5z" />
    <glyph glyph-name="adieresis" unicode="&#xe4;" 
d="M452 176l13 59q-21 -18 -76.5 -27t-65.5 -13q-30 -12 -37 -43q-4 -23 11 -37t41 -14q42 0 75 22.5t39 52.5zM696 382l-48 -229q-4 -20 -8 -51.5t-6 -41.5q-8 -36 -40 -54.5t-72 -18.5q-50 0 -69 22t-17 61q-73 -83 -202 -83q-90 0 -134 39.5t-26 122.5q15 71 84 113.5
t216 51.5q60 4 86.5 14.5t32.5 36.5q5 25 -13.5 38t-59.5 13q-47 0 -104.5 -35.5t-90.5 -35.5q-31 0 -44.5 16.5t-6.5 47.5q12 57 90.5 92t187.5 35q47 0 89 -6.5t83.5 -22t61.5 -47.5t10 -78zM505 673q8 38 40.5 64.5t69.5 26.5q38 0 59 -27t13 -64q-8 -38 -40.5 -64.5
t-69.5 -26.5q-38 0 -59 27t-13 64zM265 673q8 38 40.5 64.5t69.5 26.5q38 0 59 -27t13 -64q-8 -38 -40.5 -64.5t-69.5 -26.5q-38 0 -59 27t-13 64z" />
    <glyph glyph-name="aring" unicode="&#xe5;" 
d="M452 176l13 59q-21 -18 -76.5 -27t-65.5 -13q-30 -12 -37 -43q-4 -23 11 -37t41 -14q42 0 75 22.5t39 52.5zM696 382l-48 -229q-4 -20 -8 -51.5t-6 -41.5q-8 -36 -40 -54.5t-72 -18.5q-50 0 -69 22t-17 61q-73 -83 -202 -83q-90 0 -134 39.5t-26 122.5q15 71 84 113.5
t216 51.5q60 4 86.5 14.5t32.5 36.5q5 25 -13.5 38t-59.5 13q-47 0 -104.5 -35.5t-90.5 -35.5q-31 0 -44.5 16.5t-6.5 47.5q12 57 90.5 92t187.5 35q47 0 89 -6.5t83.5 -22t61.5 -47.5t10 -78zM380 689q10 49 52.5 84t92.5 35q49 0 76.5 -34.5t16.5 -84.5t-53 -84.5
t-91 -34.5q-50 0 -77 35t-17 84zM446 689q-5 -22 7.5 -37.5t34.5 -15.5t41 15.5t23 37.5q5 22 -7 37.5t-34 15.5t-41 -15.5t-24 -37.5z" />
    <glyph glyph-name="ae" unicode="&#xe6;" horiz-adv-x="980" 
d="M432 176l13 59q-21 -18 -76.5 -27t-65.5 -13q-30 -12 -37 -43q-4 -23 11 -37t41 -14q42 0 75 22.5t39 52.5zM54 149q15 71 84 113.5t216 51.5q60 4 86 14.5t32 36.5q5 25 -13 38t-59 13q-47 0 -104.5 -35.5t-90.5 -35.5q-65 0 -49 74q10 49 92.5 83t183.5 34
q106 0 159 -39q83 39 181 39q48 0 87.5 -9t65.5 -24t47 -35t31 -42t17 -45t5.5 -43.5t-3.5 -37.5q-10 -46 -36.5 -65t-76.5 -19h-292q-7 -51 15.5 -80t71.5 -29q39 0 102 32t93 32q26 0 40.5 -21t9.5 -47q-10 -48 -83 -82t-211 -34q-131 0 -196 64q-102 -64 -245 -64
q-90 0 -134 39.5t-26 122.5zM639 318h193q11 51 -11.5 74.5t-64.5 23.5q-39 0 -72 -23.5t-45 -74.5z" />
    <glyph glyph-name="ccedilla" unicode="&#xe7;" horiz-adv-x="611" 
d="M96 262q29 136 125 205t226 69q104 0 162.5 -42.5t46.5 -98.5q-7 -34 -32.5 -55t-57.5 -21q-17 0 -33 11.5t-26.5 25t-30 25t-44.5 11.5q-57 0 -88 -37t-41 -89q-15 -51 0 -93t65 -42q36 0 90.5 36.5t81.5 36.5q35 0 51 -23.5t10 -52.5q-4 -18 -21.5 -40t-48 -45.5
t-84 -39.5t-117.5 -16q-10 0 -14 1q-22 -19 -34 -37q36 3 39 3q36 0 57 -19t13 -56q-8 -41 -48.5 -67.5t-119.5 -26.5q-52 0 -71.5 11t-15.5 30q6 29 33 29q7 0 27 -5t36 -5q32 0 38 29q2 10 -2.5 17.5t-14.5 7.5h-30q-13 0 -19.5 5t-4.5 17t12.5 25t46.5 48q-97 17 -142 85
t-20 183z" />
    <glyph glyph-name="egrave" unicode="&#xe8;" 
d="M624 103q-10 -48 -83 -82t-211 -34q-130 0 -196.5 69.5t-37.5 205.5t125 205t226 69q48 0 87.5 -9t65.5 -24t47 -35t31 -42t17 -45t5.5 -43.5t-3.5 -37.5q-10 -46 -36.5 -65t-76.5 -19h-292q-7 -51 15.5 -80t71.5 -29q39 0 102 32t93 32q26 0 40.5 -21t9.5 -47zM314 318
h193q11 51 -11.5 74.5t-64.5 23.5q-39 0 -72 -23.5t-45 -74.5zM414 597l-68 71q-23 23 -17 53q6 25 30 43t46 18q16 0 27.5 -6t31.5 -27l68 -71q23 -23 17 -53q-6 -25 -30 -43t-46 -18q-16 0 -27.5 6t-31.5 27z" />
    <glyph glyph-name="eacute" unicode="&#xe9;" 
d="M624 103q-10 -48 -83 -82t-211 -34q-130 0 -196.5 69.5t-37.5 205.5t125 205t226 69q48 0 87.5 -9t65.5 -24t47 -35t31 -42t17 -45t5.5 -43.5t-3.5 -37.5q-10 -46 -36.5 -65t-76.5 -19h-292q-7 -51 15.5 -80t71.5 -29q39 0 102 32t93 32q26 0 40.5 -21t9.5 -47zM314 318
h193q11 51 -11.5 74.5t-64.5 23.5q-39 0 -72 -23.5t-45 -74.5zM422 678l98 71q46 33 73 33q23 0 39.5 -18t10.5 -43q-6 -29 -39 -53l-98 -71q-46 -33 -73 -33q-23 0 -39.5 18t-10.5 43q6 29 39 53z" />
    <glyph glyph-name="ecircumflex" unicode="&#xea;" 
d="M624 103q-10 -48 -83 -82t-211 -34q-130 0 -196.5 69.5t-37.5 205.5t125 205t226 69q48 0 87.5 -9t65.5 -24t47 -35t31 -42t17 -45t5.5 -43.5t-3.5 -37.5q-10 -46 -36.5 -65t-76.5 -19h-292q-7 -51 15.5 -80t71.5 -29q39 0 102 32t93 32q26 0 40.5 -21t9.5 -47zM314 318
h193q11 51 -11.5 74.5t-64.5 23.5q-39 0 -72 -23.5t-45 -74.5zM287 634q5 31 102 96q50 34 68.5 42.5t41.5 8.5t38 -8.5t50 -42.5q68 -63 62 -96q-5 -23 -24.5 -41t-44.5 -18q-31 0 -108 81q-110 -81 -142 -81q-25 0 -36.5 18t-6.5 41z" />
    <glyph glyph-name="edieresis" unicode="&#xeb;" 
d="M624 103q-10 -48 -83 -82t-211 -34q-130 0 -196.5 69.5t-37.5 205.5t125 205t226 69q48 0 87.5 -9t65.5 -24t47 -35t31 -42t17 -45t5.5 -43.5t-3.5 -37.5q-10 -46 -36.5 -65t-76.5 -19h-292q-7 -51 15.5 -80t71.5 -29q39 0 102 32t93 32q26 0 40.5 -21t9.5 -47zM314 318
h193q11 51 -11.5 74.5t-64.5 23.5q-39 0 -72 -23.5t-45 -74.5zM505 673q8 38 40.5 64.5t69.5 26.5q38 0 59 -27t13 -64q-8 -38 -40.5 -64.5t-69.5 -26.5q-38 0 -59 27t-13 64zM265 673q8 38 40.5 64.5t69.5 26.5q38 0 59 -27t13 -64q-8 -38 -40.5 -64.5t-69.5 -26.5
q-38 0 -59 27t-13 64z" />
    <glyph glyph-name="igrave" unicode="&#xec;" horiz-adv-x="314" 
d="M73 89l73 345q11 51 44.5 76.5t80.5 25.5t69.5 -25.5t11.5 -76.5l-73 -345q-11 -51 -44.5 -76.5t-80.5 -25.5t-69.5 25.5t-11.5 76.5zM238 597l-68 71q-23 23 -17 53q6 25 30 43t46 18q16 0 27.5 -6t31.5 -27l68 -71q23 -23 17 -53q-6 -25 -30 -43t-46 -18q-16 0 -27.5 6
t-31.5 27z" />
    <glyph glyph-name="iacute" unicode="&#xed;" horiz-adv-x="314" 
d="M73 89l73 345q11 51 44.5 76.5t80.5 25.5t69.5 -25.5t11.5 -76.5l-73 -345q-11 -51 -44.5 -76.5t-80.5 -25.5t-69.5 25.5t-11.5 76.5zM246 678l98 71q46 33 73 33q23 0 39.5 -18t10.5 -43q-6 -29 -39 -53l-98 -71q-46 -33 -73 -33q-23 0 -39.5 18t-10.5 43q6 29 39 53z
" />
    <glyph glyph-name="icircumflex" unicode="&#xee;" horiz-adv-x="314" 
d="M73 89l73 345q11 51 44.5 76.5t80.5 25.5t69.5 -25.5t11.5 -76.5l-73 -345q-11 -51 -44.5 -76.5t-80.5 -25.5t-69.5 25.5t-11.5 76.5zM111 634q5 31 102 96q50 34 68.5 42.5t41.5 8.5t38 -8.5t50 -42.5q68 -63 62 -96q-5 -23 -24.5 -41t-44.5 -18q-31 0 -108 81
q-110 -81 -142 -81q-25 0 -36.5 18t-6.5 41z" />
    <glyph glyph-name="idieresis" unicode="&#xef;" horiz-adv-x="314" 
d="M73 89l73 345q11 51 44.5 76.5t80.5 25.5t69.5 -25.5t11.5 -76.5l-73 -345q-11 -51 -44.5 -76.5t-80.5 -25.5t-69.5 25.5t-11.5 76.5zM329 673q8 38 40.5 64.5t69.5 26.5q38 0 59 -27t13 -64q-8 -38 -40.5 -64.5t-69.5 -26.5q-38 0 -59 27t-13 64zM89 673q8 38 40.5 64.5
t69.5 26.5q38 0 59 -27t13 -64q-8 -38 -40.5 -64.5t-69.5 -26.5q-38 0 -59 27t-13 64z" />
    <glyph glyph-name="eth" unicode="&#xf0;" 
d="M474 256q30 142 -56 142q-88 0 -118 -142q-27 -131 60 -131t114 131zM533 727l82 36q44 19 60 19t25.5 -11.5t6.5 -28.5q-3 -14 -12.5 -22.5t-32.5 -19.5l-53 -23q48 -38 79.5 -137t10.5 -198q-76 -355 -369 -355q-130 0 -196.5 69.5t-37.5 205.5q28 130 117.5 199
t181.5 69q56 0 98 -20q0 48 -64 88l-94 -42q-44 -19 -60 -19q-17 0 -26 12t-5 28q3 14 12.5 22.5t32.5 19.5l43 19l-1 2q-45 6 -59 21.5t-8 43.5q5 24 31 39.5t61 15.5q100 0 177 -33z" />
    <glyph glyph-name="ntilde" unicode="&#xf1;" 
d="M428 89l42 197q19 88 -58 88q-37 0 -62 -27t-35 -75l-39 -183q-11 -51 -44.5 -76.5t-80.5 -25.5t-69.5 25.5t-11.5 76.5l74 349q21 98 120 98q44 0 60 -24t11 -73h2q74 97 191 97q102 0 139.5 -55.5t18.5 -146.5l-52 -245q-11 -51 -44.5 -76.5t-80.5 -25.5t-69.5 25.5
t-11.5 76.5zM285 651q8 37 45 68t81 31q38 0 76.5 -16t48.5 -16q18 0 43 16t45 16q22 0 34.5 -16.5t7.5 -40.5q-7 -37 -44.5 -68t-81.5 -31q-38 0 -76 16t-48 16q-18 0 -43 -16t-46 -16q-22 0 -34.5 16.5t-7.5 40.5z" />
    <glyph glyph-name="ograve" unicode="&#xf2;" 
d="M96 262q29 136 125 205t226 69t197 -69t38 -205t-125.5 -205.5t-226.5 -69.5t-196.5 69.5t-37.5 205.5zM474 256q30 142 -56 142q-88 0 -118 -142q-27 -131 60 -131t114 131zM414 597l-68 71q-23 23 -17 53q6 25 30 43t46 18q16 0 27.5 -6t31.5 -27l68 -71q23 -23 17 -53
q-6 -25 -30 -43t-46 -18q-16 0 -27.5 6t-31.5 27z" />
    <glyph glyph-name="oacute" unicode="&#xf3;" 
d="M96 262q29 136 125 205t226 69t197 -69t38 -205t-125.5 -205.5t-226.5 -69.5t-196.5 69.5t-37.5 205.5zM474 256q30 142 -56 142q-88 0 -118 -142q-27 -131 60 -131t114 131zM422 678l98 71q46 33 73 33q23 0 39.5 -18t10.5 -43q-6 -29 -39 -53l-98 -71q-46 -33 -73 -33
q-23 0 -39.5 18t-10.5 43q6 29 39 53z" />
    <glyph glyph-name="ocircumflex" unicode="&#xf4;" 
d="M96 262q29 136 125 205t226 69t197 -69t38 -205t-125.5 -205.5t-226.5 -69.5t-196.5 69.5t-37.5 205.5zM474 256q30 142 -56 142q-88 0 -118 -142q-27 -131 60 -131t114 131zM287 634q5 31 102 96q50 34 68.5 42.5t41.5 8.5t38 -8.5t50 -42.5q68 -63 62 -96
q-5 -23 -24.5 -41t-44.5 -18q-31 0 -108 81q-110 -81 -142 -81q-25 0 -36.5 18t-6.5 41z" />
    <glyph glyph-name="otilde" unicode="&#xf5;" 
d="M96 262q29 136 125 205t226 69t197 -69t38 -205t-125.5 -205.5t-226.5 -69.5t-196.5 69.5t-37.5 205.5zM474 256q30 142 -56 142q-88 0 -118 -142q-27 -131 60 -131t114 131zM285 651q8 37 45 68t81 31q38 0 76.5 -16t48.5 -16q18 0 43 16t45 16q22 0 34.5 -16.5
t7.5 -40.5q-7 -37 -44.5 -68t-81.5 -31q-38 0 -76 16t-48 16q-18 0 -43 -16t-46 -16q-22 0 -34.5 16.5t-7.5 40.5z" />
    <glyph glyph-name="odieresis" unicode="&#xf6;" 
d="M96 262q29 136 125 205t226 69t197 -69t38 -205t-125.5 -205.5t-226.5 -69.5t-196.5 69.5t-37.5 205.5zM474 256q30 142 -56 142q-88 0 -118 -142q-27 -131 60 -131t114 131zM505 673q8 38 40.5 64.5t69.5 26.5q38 0 59 -27t13 -64q-8 -38 -40.5 -64.5t-69.5 -26.5
q-38 0 -59 27t-13 64zM265 673q8 38 40.5 64.5t69.5 26.5q38 0 59 -27t13 -64q-8 -38 -40.5 -64.5t-69.5 -26.5q-38 0 -59 27t-13 64z" />
    <glyph glyph-name="divide" unicode="&#xf7;" horiz-adv-x="600" 
d="M161 349h426q32 0 47.5 -17.5t8.5 -48.5t-29.5 -48.5t-54.5 -17.5h-426q-32 0 -47.5 17.5t-8.5 48.5t29.5 48.5t54.5 17.5zM221 72q8 39 41.5 66.5t72.5 27.5t60.5 -27.5t13.5 -66.5t-41.5 -66.5t-72.5 -27.5t-60.5 27.5t-13.5 66.5zM311 494q8 39 41.5 66.5t72.5 27.5
t60.5 -27.5t13.5 -66.5t-41.5 -66.5t-72.5 -27.5t-60.5 27.5t-13.5 66.5z" />
    <glyph glyph-name="oslash" unicode="&#xf8;" 
d="M285 234l190 157q-18 19 -55 19q-51 0 -82.5 -36t-49.5 -118q0 -2 -1.5 -10.5t-1.5 -11.5zM492 289l-190 -157q18 -19 55 -19q51 0 82 34.5t47 108.5q6 24 6 33zM58 47l52 43q-37 67 -14 172q29 136 125 205t226 69q95 0 158 -38l64 53q23 19 50 19q18 0 30 -12.5
t6 -34.5q-3 -20 -36 -47l-52 -43q37 -67 15 -171q-29 -136 -125.5 -205.5t-226.5 -69.5q-98 0 -158 38l-64 -53q-23 -19 -50 -19q-18 0 -30 12.5t-6 34.5q3 20 36 47z" />
    <glyph glyph-name="ugrave" unicode="&#xf9;" 
d="M462 251l39 183q11 51 44.5 76.5t80.5 25.5t69.5 -25.5t11.5 -76.5l-74 -349q-21 -98 -120 -98q-44 0 -60 24t-11 73h-2q-74 -97 -191 -97q-102 0 -139.5 55.5t-18.5 146.5l52 245q11 51 44.5 76.5t80.5 25.5t69.5 -25.5t11.5 -76.5l-42 -197q-19 -88 58 -88q37 0 62 27
t35 75zM414 597l-68 71q-23 23 -17 53q6 25 30 43t46 18q16 0 27.5 -6t31.5 -27l68 -71q23 -23 17 -53q-6 -25 -30 -43t-46 -18q-16 0 -27.5 6t-31.5 27z" />
    <glyph glyph-name="uacute" unicode="&#xfa;" 
d="M462 251l39 183q11 51 44.5 76.5t80.5 25.5t69.5 -25.5t11.5 -76.5l-74 -349q-21 -98 -120 -98q-44 0 -60 24t-11 73h-2q-74 -97 -191 -97q-102 0 -139.5 55.5t-18.5 146.5l52 245q11 51 44.5 76.5t80.5 25.5t69.5 -25.5t11.5 -76.5l-42 -197q-19 -88 58 -88q37 0 62 27
t35 75zM422 678l98 71q46 33 73 33q23 0 39.5 -18t10.5 -43q-6 -29 -39 -53l-98 -71q-46 -33 -73 -33q-23 0 -39.5 18t-10.5 43q6 29 39 53z" />
    <glyph glyph-name="ucircumflex" unicode="&#xfb;" 
d="M462 251l39 183q11 51 44.5 76.5t80.5 25.5t69.5 -25.5t11.5 -76.5l-74 -349q-21 -98 -120 -98q-44 0 -60 24t-11 73h-2q-74 -97 -191 -97q-102 0 -139.5 55.5t-18.5 146.5l52 245q11 51 44.5 76.5t80.5 25.5t69.5 -25.5t11.5 -76.5l-42 -197q-19 -88 58 -88q37 0 62 27
t35 75zM287 634q5 31 102 96q50 34 68.5 42.5t41.5 8.5t38 -8.5t50 -42.5q68 -63 62 -96q-5 -23 -24.5 -41t-44.5 -18q-31 0 -108 81q-110 -81 -142 -81q-25 0 -36.5 18t-6.5 41z" />
    <glyph glyph-name="udieresis" unicode="&#xfc;" 
d="M462 251l39 183q11 51 44.5 76.5t80.5 25.5t69.5 -25.5t11.5 -76.5l-74 -349q-21 -98 -120 -98q-44 0 -60 24t-11 73h-2q-74 -97 -191 -97q-102 0 -139.5 55.5t-18.5 146.5l52 245q11 51 44.5 76.5t80.5 25.5t69.5 -25.5t11.5 -76.5l-42 -197q-19 -88 58 -88q37 0 62 27
t35 75zM505 673q8 38 40.5 64.5t69.5 26.5q38 0 59 -27t13 -64q-8 -38 -40.5 -64.5t-69.5 -26.5q-38 0 -59 27t-13 64zM265 673q8 38 40.5 64.5t69.5 26.5q38 0 59 -27t13 -64q-8 -38 -40.5 -64.5t-69.5 -26.5q-38 0 -59 27t-13 64z" />
    <glyph glyph-name="yacute" unicode="&#xfd;" horiz-adv-x="556" 
d="M319 169l113 250q29 64 56.5 90.5t67.5 26.5t63.5 -23t14.5 -65q-4 -21 -67 -133l-195 -351q-88 -161 -255 -161q-60 0 -86 22.5t-18 63.5q14 64 93 64q53 0 58 25q3 12 -1 40l-44 313q-13 88 -7 117q8 38 42.5 63t77.5 25q69 0 72 -77l13 -290h2zM367 678l98 71
q46 33 73 33q23 0 39.5 -18t10.5 -43q-6 -29 -39 -53l-98 -71q-46 -33 -73 -33q-23 0 -39.5 18t-10.5 43q6 29 39 53z" />
    <glyph glyph-name="thorn" unicode="&#xfe;" 
d="M29 -104l156 734q22 103 122 103t78 -103l-33 -154h2q54 60 152 60q108 0 155 -74.5t20 -201.5q-9 -42 -30.5 -86t-56 -87.5t-88 -71.5t-116.5 -28q-93 0 -123 80h-2l-36 -171q-22 -103 -122 -103t-78 103zM304 262q-12 -53 4 -83t51 -30q92 0 118 118q5 29 4.5 55.5
t-18 45t-50.5 18.5q-84 0 -109 -124z" />
    <glyph glyph-name="ydieresis" unicode="&#xff;" horiz-adv-x="556" 
d="M319 169l113 250q29 64 56.5 90.5t67.5 26.5t63.5 -23t14.5 -65q-4 -21 -67 -133l-195 -351q-88 -161 -255 -161q-60 0 -86 22.5t-18 63.5q14 64 93 64q53 0 58 25q3 12 -1 40l-44 313q-13 88 -7 117q8 38 42.5 63t77.5 25q69 0 72 -77l13 -290h2zM450 673
q8 38 40.5 64.5t69.5 26.5q38 0 59 -27t13 -64q-8 -38 -40.5 -64.5t-69.5 -26.5q-38 0 -59 27t-13 64zM210 673q8 38 40.5 64.5t69.5 26.5q38 0 59 -27t13 -64q-8 -38 -40.5 -64.5t-69.5 -26.5q-38 0 -59 27t-13 64z" />
    <glyph glyph-name="dotlessi" unicode="&#x131;" horiz-adv-x="314" 
d="M73 89l73 345q11 51 44.5 76.5t80.5 25.5t69.5 -25.5t11.5 -76.5l-73 -345q-11 -51 -44.5 -76.5t-80.5 -25.5t-69.5 25.5t-11.5 76.5z" />
    <glyph glyph-name="Lslash" unicode="&#x141;" horiz-adv-x="667" 
d="M159 364l52 245q13 58 51 91t91 33t77 -33t11 -91l-24 -113l57 29q41 21 59 21q31 0 47 -20t11 -48q-9 -37 -75 -71l-132 -67l-32 -154h241q45 0 66.5 -24.5t12.5 -68.5q-10 -44 -42 -68.5t-77 -24.5h-340q-67 0 -92 32.5t-10 104.5l15 71q-35 -18 -52 -18
q-32 0 -47.5 18.5t-10.5 46.5q8 38 76 74z" />
    <glyph glyph-name="lslash" unicode="&#x142;" horiz-adv-x="332" 
d="M82 89l35 166q-17 -7 -31 -7q-25 0 -39.5 18.5t-9.5 42.5q7 37 49 59l62 32l49 231q11 51 44.5 76.5t80.5 25.5t69.5 -25.5t11.5 -76.5l-26 -121q19 7 32 7q25 0 39.5 -18.5t9.5 -42.5q-9 -38 -50 -59l-61 -31l-59 -277q-11 -51 -44.5 -76.5t-80.5 -25.5t-69.5 25.5
t-11.5 76.5z" />
    <glyph glyph-name="OE" unicode="&#x152;" horiz-adv-x="1000" 
d="M750 168h166q50 0 70 -22.5t12 -61.5q-18 -84 -118 -84h-290q-68 0 -54 65q-92 -82 -208 -82q-56 0 -101.5 20t-80.5 63.5t-44 112.5t9 166q40 186 144 289t231 103q67 0 108.5 -19.5t61.5 -67.5h2q7 31 29.5 50.5t55.5 19.5h291q50 0 70.5 -22.5t11.5 -61.5
q-8 -39 -38 -61.5t-80 -22.5h-167l-21 -101h145q50 0 70.5 -22.5t11.5 -61.5q-18 -84 -118 -84h-145zM578 357q22 107 3 153.5t-83 46.5q-61 0 -101.5 -58t-58.5 -142q-22 -93 -5 -146.5t80 -53.5q122 0 165 200z" />
    <glyph glyph-name="oe" unicode="&#x153;" horiz-adv-x="1000" 
d="M930 216h-291q-10 -47 11 -78t68 -31q45 0 100 31.5t72 31.5q31 0 46.5 -19t10.5 -44q-11 -54 -85.5 -87t-164.5 -33q-72 0 -112.5 13.5t-74.5 52.5q-46 -39 -93 -52.5t-108 -13.5q-115 0 -176.5 67.5t-31.5 208.5q27 124 114 198.5t212 74.5q64 0 104 -15.5t72 -53.5
q55 39 95.5 54t97.5 15q125 0 183 -74t38 -171q-9 -41 -30 -58t-57 -17zM473 265q29 133 -56 133q-82 0 -109 -131q-7 -31 -9 -52.5t1.5 -44t18.5 -34t43 -11.5q27 0 47 12t32.5 35.5t19 43.5t12.5 49zM664 318h171q6 44 -9 71t-55 27q-38 0 -66.5 -25t-40.5 -73z" />
    <glyph glyph-name="Scaron" unicode="&#x160;" horiz-adv-x="722" 
d="M490 205q4 21 -8.5 32t-43.5 21l-144 44q-166 51 -135 202q21 99 105 166t225 67q55 0 103 -7.5t92 -23.5t65 -47.5t12 -74.5q-9 -41 -42 -66t-77 -25q-25 0 -43.5 13.5t-29.5 30.5t-37 30.5t-64 13.5q-32 0 -56 -12.5t-29 -35.5t11 -35.5t54 -23.5l112 -32
q93 -27 135 -76.5t23 -137.5q-17 -82 -73 -139t-127 -81.5t-151 -24.5q-86 0 -147 17.5t-89 45t-38.5 55.5t-4.5 55q9 42 42 68t75 26q27 0 47.5 -16.5t32.5 -36t38.5 -36t64.5 -16.5q88 0 102 60zM374 915q5 23 24.5 41t44.5 18q31 0 108 -81q110 81 142 81q25 0 36.5 -18
t6.5 -41q-6 -32 -102 -96q-49 -33 -68 -42t-42 -9q-22 0 -37 8.5t-51 42.5q-68 64 -62 96z" />
    <glyph glyph-name="scaron" unicode="&#x161;" horiz-adv-x="593" 
d="M382 142q4 16 -7.5 28t-49.5 20l-58 13q-103 23 -137.5 62.5t-21.5 100.5q15 71 87 120.5t213 49.5q64 0 116.5 -11.5t84.5 -38t24 -64.5q-6 -27 -29 -45.5t-53 -18.5q-27 0 -50.5 16t-52 32t-70.5 16q-58 0 -66 -37q-3 -16 7 -24.5t48 -17.5l83 -19q175 -40 150 -156
q-17 -78 -95 -129.5t-228 -51.5q-107 0 -172 32.5t-52 94.5q5 26 31 44.5t56 18.5q19 0 37 -12t31.5 -26t40 -26t59.5 -12q31 0 51 12.5t23 28.5zM268 713q5 23 24 41t44 18q31 0 108 -81q110 81 142 81q26 0 37.5 -18t6.5 -41q-8 -32 -103 -96q-49 -33 -68 -42t-42 -9
q-22 0 -37 8.5t-51 42.5q-68 65 -61 96z" />
    <glyph glyph-name="Ydieresis" unicode="&#x178;" 
d="M433 470l134 193q49 70 122 70q46 0 71 -32.5t16 -76.5q-6 -28 -46 -79l-227 -287l-31 -147q-13 -58 -51 -91t-91 -33t-77 33t-11 91l31 147l-105 287q-18 50 -12 79q9 44 48 76.5t85 32.5q73 0 92 -70zM548 875q8 38 40.5 64.5t69.5 26.5q38 0 59 -27t13 -64
q-8 -38 -40.5 -64.5t-69.5 -26.5q-38 0 -59 27t-13 64zM308 875q8 38 40.5 64.5t69.5 26.5q38 0 59 -27t13 -64q-8 -38 -40.5 -64.5t-69.5 -26.5q-38 0 -59 27t-13 64z" />
    <glyph glyph-name="Zcaron" unicode="&#x17d;" horiz-adv-x="722" 
d="M373 180h260q106 0 86 -90q-18 -90 -124 -90h-460q-56 0 -78.5 28t-13.5 73q7 29 25.5 53.5t64.5 65.5l356 320h-224q-55 0 -77.5 24t-13.5 66t41.5 66t87.5 24h434q52 0 72.5 -28t11.5 -73q-10 -45 -67 -97zM374 915q5 23 24.5 41t44.5 18q31 0 108 -81q110 81 142 81
q25 0 36.5 -18t6.5 -41q-6 -32 -102 -96q-49 -33 -68 -42t-42 -9q-22 0 -37 8.5t-51 42.5q-68 64 -62 96z" />
    <glyph glyph-name="zcaron" unicode="&#x17e;" horiz-adv-x="574" 
d="M321 144h179q38 0 54 -16t7 -56t-31.5 -56t-60.5 -16h-371q-34 0 -47 22.5t-7 52.5q10 46 64 91l263 213h-163q-38 0 -54.5 16t-7.5 56q8 39 31.5 55.5t71.5 16.5h326q37 0 51 -24t5 -64q-5 -25 -15.5 -40.5t-35.5 -36.5zM258 713q5 23 24 41t44 18q31 0 108 -81
q110 81 142 81q26 0 37.5 -18t6.5 -41q-8 -32 -103 -96q-49 -33 -68 -42t-42 -9q-22 0 -37 8.5t-51 42.5q-68 65 -61 96z" />
    <glyph glyph-name="florin" unicode="&#x192;" horiz-adv-x="668" 
d="M308 404l60 152q36 90 84.5 122.5t128.5 32.5t115.5 -16t25.5 -61q-8 -38 -36 -55.5t-60 -17.5q-33 0 -43 -4.5t-18 -23.5l-51 -129h68q47 0 36 -50q-6 -30 -29 -47t-56 -17h-65l-149 -370q-33 -82 -84 -112t-133 -30q-65 0 -99.5 19t-25.5 60q14 71 90 71q33 0 43 4.5
t18 23.5l134 334h-62q-48 0 -37 50q7 30 30 47t56 17h59z" />
    <glyph glyph-name="circumflex" unicode="&#x2c6;" horiz-adv-x="278" 
d="M93 634q5 31 102 96q50 34 68.5 42.5t41.5 8.5t38 -8.5t50 -42.5q68 -63 62 -96q-5 -23 -24.5 -41t-44.5 -18q-31 0 -108 81q-110 -81 -142 -81q-25 0 -36.5 18t-6.5 41z" />
    <glyph glyph-name="caron" unicode="&#x2c7;" horiz-adv-x="278" 
d="M110 713q5 23 24 41t44 18q31 0 108 -81q110 81 142 81q26 0 37.5 -18t6.5 -41q-8 -32 -103 -96q-49 -33 -68 -42t-42 -9q-22 0 -37 8.5t-51 42.5q-68 65 -61 96z" />
    <glyph glyph-name="uni02C9" unicode="&#x2c9;" horiz-adv-x="278" 
d="M401 613h-264q-27 0 -40 16t-7 44t26 44t47 16h264q27 0 40 -16t7 -44t-26 -44t-47 -16z" />
    <glyph glyph-name="breve" unicode="&#x2d8;" horiz-adv-x="278" 
d="M121 710q5 25 24.5 40t47.5 15q17 0 25.5 -13.5t11 -30.5t15.5 -30.5t38 -13.5t44 13.5t28.5 30.5t24 30.5t31.5 13.5q28 0 40.5 -14.5t7.5 -40.5q-11 -52 -64 -93.5t-134 -41.5t-116 41.5t-24 93.5z" />
    <glyph glyph-name="dotaccent" unicode="&#x2d9;" horiz-adv-x="278" 
d="M191 673q8 38 40.5 64.5t69.5 26.5q38 0 59 -27t13 -64q-8 -38 -40.5 -64.5t-69.5 -26.5q-38 0 -59 27t-13 64z" />
    <glyph glyph-name="ring" unicode="&#x2da;" horiz-adv-x="278" 
d="M164 679q10 49 52.5 84t92.5 35q49 0 76.5 -34.5t16.5 -84.5t-53 -84.5t-91 -34.5q-50 0 -77 35t-17 84zM230 679q-5 -22 7.5 -37.5t34.5 -15.5t41 15.5t23 37.5q5 22 -7 37.5t-34 15.5t-41.5 -15.5t-23.5 -37.5z" />
    <glyph glyph-name="ogonek" unicode="&#x2db;" horiz-adv-x="278" 
d="M123 0h64q-39 -23 -61.5 -52.5t-27.5 -53.5q-8 -42 28 -42q11 0 28.5 5.5t21.5 5.5q10 0 15 -9.5t2 -22.5q-10 -45 -105 -45q-57 0 -80.5 23t-15.5 66q8 38 45 72.5t86 52.5z" />
    <glyph glyph-name="tilde" unicode="&#x2dc;" horiz-adv-x="278" 
d="M91 651q8 37 45 68t81 31q38 0 76.5 -16t48.5 -16q18 0 43 16t45 16q22 0 34.5 -16.5t7.5 -40.5q-7 -37 -44.5 -68t-81.5 -31q-38 0 -76 16t-48 16q-18 0 -43 -16t-46 -16q-22 0 -34.5 16.5t-7.5 40.5z" />
    <glyph glyph-name="hungarumlaut" unicode="&#x2dd;" horiz-adv-x="278" 
d="M110 678l98 71q46 33 73 33q23 0 39.5 -18t10.5 -43q-6 -29 -39 -53l-98 -71q-46 -33 -73 -33q-23 0 -39.5 18t-10.5 43q6 29 39 53zM350 678l98 71q46 33 73 33q23 0 39.5 -18t10.5 -43q-6 -29 -39 -53l-98 -71q-46 -33 -73 -33q-23 0 -39.5 18t-10.5 43q6 29 39 53z
" />
    <glyph glyph-name="uni03A9" unicode="&#x3a9;" horiz-adv-x="853" 
d="M226 131v3q-50 41 -77.5 107t-8.5 153q28 131 150.5 223t288.5 92q112 0 187.5 -46t102.5 -116t10 -151q-33 -157 -202 -262v-3h160l-28 -131h-338l21 100q164 87 201 263q19 91 -19 152.5t-123 61.5q-84 0 -151 -60.5t-88 -158.5q-19 -91 7 -158.5t84 -99.5l-21 -100
h-341l28 131h157z" />
    <glyph glyph-name="uni03BC" unicode="&#x3bc;" 
d="M462 251l39 183q11 51 44.5 76.5t80.5 25.5t69.5 -25.5t11.5 -76.5l-74 -349q-21 -98 -120 -98q-44 0 -60 24t-11 73h-2q-22 -44 -56.5 -70.5t-66.5 -26.5q-43 0 -54 30h-2l-26 -122q-11 -51 -44.5 -76.5t-80.5 -25.5t-69.5 25.5t-11.5 76.5l114 539q11 51 44.5 76.5
t80.5 25.5t69.5 -25.5t11.5 -76.5l-42 -197q-19 -88 58 -88q37 0 62 27t35 75z" />
    <glyph glyph-name="pi" unicode="&#x3c0;" horiz-adv-x="720" 
d="M774 391h-75l-48 -224q-23 -110 -21 -167h-174q-14 26 14 155l50 236h-134q-22 -93 -66 -212.5t-82 -178.5h-174q43 82 87 198t59 193q-72 0 -111 -10l6 106q49 38 210 38h503z" />
    <glyph glyph-name="endash" unicode="&#x2013;" horiz-adv-x="500" 
d="M174 358h304q88 0 72 -75t-104 -75h-304q-88 0 -72 75t104 75z" />
    <glyph glyph-name="emdash" unicode="&#x2014;" horiz-adv-x="1000" 
d="M174 358h804q88 0 72 -75t-104 -75h-804q-88 0 -72 75t104 75z" />
    <glyph glyph-name="quoteleft" unicode="&#x2018;" horiz-adv-x="334" 
d="M164 529q22 101 89.5 152.5t129.5 51.5q25 0 34.5 -13.5t5.5 -30.5q-8 -40 -70 -53q-60 -13 -72 -67q15 7 36 7q42 0 58.5 -28.5t8.5 -69.5q-10 -45 -47.5 -76.5t-84.5 -31.5q-50 0 -77.5 38.5t-10.5 120.5z" />
    <glyph glyph-name="quoteright" unicode="&#x2019;" horiz-adv-x="334" 
d="M185 625q9 45 47 76.5t85 31.5q50 0 77 -38.5t10 -120.5q-22 -101 -89 -152.5t-129 -51.5q-25 0 -35 13.5t-6 30.5q8 40 70 53q61 13 73 67q-17 -7 -37 -7q-42 0 -58.5 28.5t-7.5 69.5z" />
    <glyph glyph-name="quotesinglbase" unicode="&#x201a;" horiz-adv-x="334" 
d="M75 110q10 45 47.5 76.5t84.5 31.5q50 0 77.5 -38.5t10.5 -120.5q-22 -101 -89.5 -152.5t-129.5 -51.5q-25 0 -34.5 14t-5.5 30q4 21 20 33.5t50 19.5q60 13 72 67q-15 -7 -36 -7q-42 0 -58.5 28.5t-8.5 69.5z" />
    <glyph glyph-name="quotedblleft" unicode="&#x201c;" horiz-adv-x="611" 
d="M165 529q22 101 89.5 152.5t129.5 51.5q25 0 34.5 -13.5t5.5 -30.5q-8 -40 -70 -53q-60 -13 -72 -67q15 7 36 7q42 0 58.5 -28.5t8.5 -69.5q-10 -45 -47.5 -76.5t-84.5 -31.5q-50 0 -77.5 38.5t-10.5 120.5zM440 529q22 101 89.5 152.5t129.5 51.5q25 0 34.5 -13.5
t5.5 -30.5q-8 -40 -70 -53q-60 -13 -72 -67q15 7 36 7q42 0 58.5 -28.5t8.5 -69.5q-10 -45 -47.5 -76.5t-84.5 -31.5q-50 0 -77.5 38.5t-10.5 120.5z" />
    <glyph glyph-name="quotedblright" unicode="&#x201d;" horiz-adv-x="611" 
d="M186 625q9 45 47 76.5t85 31.5q50 0 77 -38.5t10 -120.5q-22 -101 -89 -152.5t-129 -51.5q-25 0 -35 13.5t-6 30.5q8 40 70 53q61 13 73 67q-17 -7 -37 -7q-42 0 -58.5 28.5t-7.5 69.5zM461 625q9 45 47 76.5t85 31.5q50 0 77 -38.5t10 -120.5q-22 -101 -89 -152.5
t-129 -51.5q-25 0 -35 13.5t-6 30.5q8 40 70 53q61 13 73 67q-17 -7 -37 -7q-42 0 -58.5 28.5t-7.5 69.5z" />
    <glyph glyph-name="quotedblbase" unicode="&#x201e;" horiz-adv-x="611" 
d="M76 110q10 45 47.5 76.5t84.5 31.5q50 0 77.5 -38.5t10.5 -120.5q-22 -101 -89.5 -152.5t-129.5 -51.5q-25 0 -34.5 14t-5.5 30q4 21 20 33.5t50 19.5q60 13 72 67q-15 -7 -36 -7q-42 0 -58.5 28.5t-8.5 69.5zM351 110q10 45 47.5 76.5t84.5 31.5q50 0 77.5 -38.5
t10.5 -120.5q-22 -101 -89.5 -152.5t-129.5 -51.5q-25 0 -34.5 14t-5.5 30q4 21 20 33.5t50 19.5q60 13 72 67q-15 -7 -36 -7q-42 0 -58.5 28.5t-8.5 69.5z" />
    <glyph glyph-name="dagger" unicode="&#x2020;" 
d="M349 516l22 106q25 111 118 111q49 0 65 -30t5 -81l-22 -106h89q48 0 64 -18.5t8 -56.5t-32 -56.5t-72 -18.5h-89l-94 -441q-10 -50 -39.5 -80.5t-78.5 -30.5q-93 0 -70 111l94 441h-89q-48 0 -64 18.5t-8 56.5t32 56.5t72 18.5h89z" />
    <glyph glyph-name="daggerdbl" unicode="&#x2021;" 
d="M272 155l50 237h-100q-38 0 -54 16t-7 56t31.5 56t60.5 16h100l18 86q25 111 118 111q49 0 65 -30t5 -81l-18 -86h100q38 0 54.5 -16t7.5 -56q-8 -40 -31.5 -56t-61.5 -16h-100l-50 -237h100q38 0 54.5 -16t7.5 -56q-8 -40 -31.5 -56t-61.5 -16h-100l-18 -86
q-10 -50 -39.5 -80.5t-78.5 -30.5q-93 0 -70 111l18 86h-100q-38 0 -54 16t-7 56t31.5 56t60.5 16h100z" />
    <glyph glyph-name="bullet" unicode="&#x2022;" horiz-adv-x="500" 
d="M149 360q15 73 78 125.5t137 52.5q73 0 114.5 -52t26.5 -126q-16 -74 -79.5 -126t-136.5 -52q-74 0 -115 52.5t-25 125.5z" />
    <glyph glyph-name="ellipsis" unicode="&#x2026;" horiz-adv-x="1000" 
d="M78 106q10 47 49.5 79.5t85.5 32.5q47 0 73 -33t16 -79q-11 -47 -50.5 -79.5t-85.5 -32.5q-47 0 -72.5 33t-15.5 79zM411 106q10 47 49.5 79.5t85.5 32.5q47 0 73 -33t16 -79q-11 -47 -50.5 -79.5t-85.5 -32.5q-47 0 -72.5 33t-15.5 79zM744 106q10 47 49.5 79.5
t85.5 32.5q47 0 73 -33t16 -79q-11 -47 -50.5 -79.5t-85.5 -32.5q-47 0 -72.5 33t-15.5 79z" />
    <glyph glyph-name="perthousand" unicode="&#x2030;" horiz-adv-x="1000" 
d="M307 533q8 38 9.5 58t-5.5 31t-24 11q-25 0 -38.5 -22.5t-25.5 -77.5q-12 -53 -8 -76.5t29 -23.5t38 22t25 78zM115 533q39 178 188 178q74 0 102.5 -46t9.5 -132q-18 -86 -66 -132t-122 -46q-149 0 -112 178zM589 165q12 53 8 76.5t-29 23.5t-38 -22t-25 -78
q-12 -53 -8 -76.5t29 -23.5t38 22t25 78zM397 165q18 86 66 132t122 46q149 0 112 -178q-18 -86 -66 -132t-122 -46q-149 0 -112 178zM925 165q12 53 8 76.5t-29 23.5t-38 -22t-25 -78q-12 -53 -8 -76.5t29 -23.5t38 22t25 78zM733 165q18 86 66 132t122 46q149 0 112 -178
q-18 -86 -66 -132t-122 -46q-149 0 -112 178zM92 27l568 687q26 32 50 32q14 0 25 -10t8 -23q-4 -20 -22 -42l-568 -687q-26 -32 -50 -32q-14 0 -25 10t-8 23q5 23 22 42z" />
    <glyph glyph-name="guilsinglleft" unicode="&#x2039;" horiz-adv-x="407" 
d="M237 283l86 -54q23 -15 14 -54q-11 -53 -61 -53q-15 0 -39 16q-62 43 -89 67q-10 9 -12 21.5t6 56.5q8 40 16.5 54.5t22.5 23.5q40 26 118 67q31 16 45 16q50 0 39 -53q-8 -39 -37 -54z" />
    <glyph glyph-name="guilsinglright" unicode="&#x203a;" horiz-adv-x="407" 
d="M290 283l-85 54q-15 9 -17.5 22.5t2.5 31.5q11 53 61 53q15 0 39 -16q66 -46 90 -67q10 -10 11.5 -22t-6.5 -56q-8 -39 -16 -54t-22 -24q-36 -23 -119 -67q-31 -16 -45 -16q-50 0 -39 53q5 21 12.5 33t25.5 21z" />
    <glyph glyph-name="fraction" unicode="&#x2044;" horiz-adv-x="166" 
d="M-118 40l447 633q30 43 47 55t39 12q18 0 30 -15t9 -27q-4 -16 -21 -40l-448 -633q-30 -43 -47 -55t-39 -12q-18 0 -30 14.5t-9 27.5q3 14 22 40z" />
    <glyph glyph-name="Euro" unicode="&#x20ac;" horiz-adv-x="668" 
d="M669 118q-8 -38 -40 -65.5t-75.5 -40.5t-81.5 -19t-72 -6q-131 0 -195 67.5t-63 183.5h-15q-28 0 -42.5 8.5t-8.5 35.5q9 42 74 42l4 18q3 22 9 40h-8q-27 0 -40.5 8t-8.5 33q6 28 24.5 36.5t47.5 8.5h17q53 110 147 176.5t218 66.5q42 0 75.5 -4t71 -15.5t55 -38
t9.5 -66.5q-7 -32 -31 -53t-55 -21q-23 0 -58.5 18t-75.5 18q-81 0 -140 -81h154q14 0 22.5 -1t18.5 -5t11 -13t0 -24q-5 -26 -23 -34.5t-47 -8.5h-179q-2 -6 -5 -17.5t-4 -14.5q-2 -10 -4 -26h137q20 0 30.5 -2t18 -11t3.5 -27q-6 -28 -23 -37t-47 -9h-120q14 -97 112 -97
q36 0 85 21t71 21q28 0 40.5 -18.5t6.5 -46.5z" />
    <glyph glyph-name="afii61289" unicode="&#x2113;" horiz-adv-x="632" 
d="M581 218l58 -74q-123 -154 -300 -154q-173 0 -181 149v8q-54 -31 -60 -34l-28 86q13 8 51.5 30.5t58.5 35.5l46 217q30 142 104 212.5t177 70.5q90 0 125 -53.5t18 -133.5q-19 -88 -94 -168.5t-213 -176.5l-5 -25q-5 -37 15.5 -59t58.5 -22q82 0 169 91zM403 516
l-30 -138q136 110 155 202q16 72 -35 72q-26 0 -50.5 -32t-39.5 -104z" />
    <glyph glyph-name="trademark" unicode="&#x2122;" horiz-adv-x="1000" 
d="M205 359l58 271h-63q-48 0 -40 45q10 45 59 45h246q24 0 34 -12t5 -33q-4 -21 -19 -33t-39 -12h-63l-58 -271q-5 -27 -24.5 -43.5t-47.5 -16.5t-40.5 16.5t-7.5 43.5zM879 359l42 197h-2l-119 -204q-32 -53 -68 -53q-38 0 -46 53l-33 204h-2l-42 -197q-5 -27 -24.5 -43.5
t-47.5 -16.5t-40.5 16.5t-7.5 43.5l59 277q9 39 36 64.5t66 25.5q76 0 91 -77l29 -167l101 167q46 77 123 77q39 0 56 -25.5t8 -64.5l-59 -277q-5 -27 -24.5 -43.5t-47.5 -16.5t-40.5 16.5t-7.5 43.5z" />
    <glyph glyph-name="Omega" unicode="&#x2126;" horiz-adv-x="853" 
d="M226 131v3q-50 41 -77.5 107t-8.5 153q28 131 150.5 223t288.5 92q112 0 187.5 -46t102.5 -116t10 -151q-33 -157 -202 -262v-3h160l-28 -131h-338l21 100q164 87 201 263q19 91 -19 152.5t-123 61.5q-84 0 -151 -60.5t-88 -158.5q-19 -91 7 -158.5t84 -99.5l-21 -100
h-341l28 131h157z" />
    <glyph glyph-name="estimated" unicode="&#x212e;" horiz-adv-x="1022" 
d="M988 338h-650q-6 0 -6 -4v-197q0 -13 9 -22q104 -107 246 -107q76 0 143 32t116 88h57q-54 -65 -138 -102.5t-179 -37.5q-166 0 -283.5 105.5t-117.5 254.5q0 150 117 255.5t284 105.5t284.5 -105.5t117.5 -255.5v-10zM840 364v198q0 14 -9 23q-106 103 -244 103
q-141 0 -245 -106q-10 -9 -10 -24v-194q0 -6 6 -6h498q4 0 4 6z" />
    <glyph glyph-name="partialdiff" unicode="&#x2202;" horiz-adv-x="680" 
d="M242 608l-25 115q105 64 243 64q147 0 221.5 -106t37.5 -282q-40 -184 -159 -296.5t-273 -112.5q-63 0 -109 24t-66.5 60t-29.5 79t2 81q24 114 110 188t198 74q63 0 101.5 -28t53.5 -58h1q3 9 6 24q19 90 -19 154.5t-126 64.5q-85 0 -167 -45zM334 123h1q52 0 99.5 50
t69.5 111q-1 28 -27 56t-71 28q-52 0 -94.5 -40t-54.5 -97q-10 -46 12 -77t65 -31z" />
    <glyph glyph-name="Delta" unicode="&#x2206;" horiz-adv-x="774" 
d="M25 0l18 87l390 625h214l120 -624l-19 -88h-723zM242 132h333l-52 276q-2 16 -11 74.5t-11 83.5h-4q-10 -20 -80 -145z" />
    <glyph glyph-name="product" unicode="&#x220f;" horiz-adv-x="1003" 
d="M972 718v-43q-70 -5 -86 -23.5t-16 -88.5v-487q0 -72 16.5 -90t86.5 -24v-43h-373v43q59 5 70.5 21.5t11.5 92.5v548q0 26 -7 32.5t-34 6.5h-131q-26 0 -32 -6.5t-6 -32.5v-548q0 -75 10.5 -92t64.5 -22v-43h-365v43q69 6 85.5 24.5t16.5 89.5v487q0 70 -17 88.5
t-89 23.5v43h794z" />
    <glyph glyph-name="summation" unicode="&#x2211;" horiz-adv-x="819" 
d="M794 167l-59 -259h-557v47l236 306l-229 410v47h549q6 -110 14 -205l-45 -12q-26 81 -48 119q-17 28 -38 37.5t-79 9.5h-133l162 -296l-243 -318h255q77 0 101.5 17.5t68.5 108.5z" />
    <glyph glyph-name="minus" unicode="&#x2212;" horiz-adv-x="600" 
d="M161 349h426q32 0 47.5 -17.5t8.5 -48.5t-29.5 -48.5t-54.5 -17.5h-426q-32 0 -47.5 17.5t-8.5 48.5t29.5 48.5t54.5 17.5z" />
    <glyph glyph-name="uni2215" unicode="&#x2215;" horiz-adv-x="166" 
d="M-118 40l447 633q30 43 47 55t39 12q18 0 30 -15t9 -27q-4 -16 -21 -40l-448 -633q-30 -43 -47 -55t-39 -12q-18 0 -30 14.5t-9 27.5q3 14 22 40z" />
    <glyph glyph-name="uni2219" unicode="&#x2219;" horiz-adv-x="334" 
d="M141 289q8 36 39 61.5t67 25.5t56 -25.5t12 -61.5t-38.5 -61.5t-66.5 -25.5t-56 25.5t-13 61.5z" />
    <glyph glyph-name="radical" unicode="&#x221a;" horiz-adv-x="787" 
d="M786 880l-199 -1044l-44 -17l-237 540l-97 -42l-17 51l233 103l148 -360h2l145 781z" />
    <glyph glyph-name="infinity" unicode="&#x221e;" horiz-adv-x="917" 
d="M872 289v-1q0 -89 -53 -141.5t-125 -52.5q-109 0 -186 112q-43 -56 -86.5 -84t-101.5 -28q-71 0 -123 52t-52 135q0 84 53 137.5t132 53.5q58 0 101.5 -26t84.5 -81q2 2 10.5 12.5t12 14t13 13.5t15.5 15t16.5 13.5t18.5 13t20 10t23 8.5t25 5t28 2q72 -1 123 -51.5
t51 -131.5zM331 190h2q58 0 123 87q-20 30 -28.5 41t-25 29t-34 24.5t-39.5 6.5q-37 0 -61.5 -26t-24.5 -71q0 -37 26 -64t62 -27zM689 378h-2q-19 0 -36.5 -7.5t-36 -26.5t-25.5 -27t-26 -32q41 -57 68.5 -76t62.5 -19t57 29t22 61q0 42 -23 70t-61 28z" />
    <glyph glyph-name="integral" unicode="&#x222b;" horiz-adv-x="625" 
d="M332 -34l-24 396q-5 86 0.5 157t18 119t31.5 85.5t39.5 59t45 35t44 18t38.5 4.5q36 0 65.5 -19t29.5 -50q0 -37 -22 -57t-52 -20q-16 0 -27.5 13t-16.5 28.5t-11.5 28.5t-13.5 13q-10 0 -14 -11t-6 -42.5t2 -88.5l21 -370q7 -126 -8.5 -223.5t-48.5 -154.5t-75 -85.5
t-91 -28.5q-38 0 -66 21t-29 51q-1 33 28.5 57t61.5 24q18 0 28 -22.5t17 -45.5t16 -23q27 0 19 131z" />
    <glyph glyph-name="approxequal" unicode="&#x2248;" horiz-adv-x="707" 
d="M607 481l68 -67q-35 -53 -78 -81.5t-85 -28.5q-56 0 -120 39q-53 32 -88 32q-32 0 -56 -18t-52 -52l-67 67q27 45 76.5 77t100.5 32q58 0 111 -33q35 -23 52 -30.5t38 -7.5q49 0 100 71zM607 272l68 -67q-73 -110 -164 -110q-54 0 -119 39q-3 2 -10.5 6t-10 5.5t-9 5
t-9.5 5t-9 4t-10 3.5t-9 2t-10.5 1.5t-10.5 0.5q-32 0 -55.5 -18t-52.5 -54l-67 67q27 45 77 77t101 32q56 0 109 -32q7 -4 21.5 -13.5t22 -13.5t20.5 -8t25 -4q28 0 50 17t52 55z" />
    <glyph glyph-name="notequal" unicode="&#x2260;" horiz-adv-x="724" 
d="M578 526l-35 -78h132v-104h-175l-54 -123h229v-104h-273l-52 -117l-83 37l36 80h-134v104h177l54 123h-231v104h274l51 114z" />
    <glyph glyph-name="lessequal" unicode="&#x2264;" horiz-adv-x="750" 
d="M700 127l-502 223v112l501 222v-114l-393 -163v-2l394 -163v-115zM702 -13h-506v106h506v-106z" />
    <glyph glyph-name="greaterequal" unicode="&#x2265;" horiz-adv-x="750" 
d="M199 684l502 -223v-111l-502 -223v114l393 164v2l-393 163v114zM697 -13h-500v106h500v-106z" />
    <glyph glyph-name="lozenge" unicode="&#x25ca;" horiz-adv-x="820" 
d="M776 338l-226 -416h-129l-225 416l228 418h126zM655 338l-166 318h-5l-167 -318l168 -322h3z" />
    </font>
</defs>
</svg>
